<svg xmlns="http://www.w3.org/2000/svg" xmlns:xlink="http://www.w3.org/1999/xlink" width="800" zoomAndPan="magnify" viewBox="0 0 600 195.000001" height="260" preserveAspectRatio="xMidYMid meet" version="1.0"><defs><clipPath id="35e6757c38"><path d="M 1.53125 0 L 598.46875 0 L 598.46875 194.003906 L 1.53125 194.003906 Z M 1.53125 0 " clip-rule="nonzero"/></clipPath><clipPath id="1426c4d181"><path d="M 39.71875 41.59375 L 150.898438 41.59375 L 150.898438 70 L 39.71875 70 Z M 39.71875 41.59375 " clip-rule="nonzero"/></clipPath><clipPath id="bf5aecc751"><path d="M 39.71875 83 L 150.898438 83 L 150.898438 112 L 39.71875 112 Z M 39.71875 83 " clip-rule="nonzero"/></clipPath><clipPath id="4bc353ae4a"><path d="M 39.71875 124 L 150.898438 124 L 150.898438 152.773438 L 39.71875 152.773438 Z M 39.71875 124 " clip-rule="nonzero"/></clipPath><clipPath id="379c8f4a12"><path d="M 283 83 L 306 83 L 306 114 L 283 114 Z M 283 83 " clip-rule="nonzero"/></clipPath><clipPath id="f60cbee915"><path d="M 298.269531 83.910156 L 290.425781 83.910156 C 289.949219 83.910156 289.480469 83.957031 289.015625 84.050781 C 288.550781 84.144531 288.101562 84.28125 287.664062 84.460938 C 287.226562 84.644531 286.808594 84.867188 286.414062 85.128906 C 286.023438 85.394531 285.65625 85.695312 285.320312 86.03125 C 284.988281 86.363281 284.6875 86.730469 284.425781 87.125 C 284.160156 87.519531 283.9375 87.933594 283.757812 88.375 C 283.574219 88.8125 283.4375 89.265625 283.34375 89.730469 C 283.253906 90.195312 283.207031 90.664062 283.207031 91.140625 L 283.207031 110.453125 C 283.207031 110.914062 283.292969 111.355469 283.46875 111.78125 C 283.644531 112.203125 283.894531 112.578125 284.21875 112.902344 C 284.542969 113.226562 284.917969 113.476562 285.339844 113.652344 C 285.761719 113.828125 286.203125 113.917969 286.664062 113.917969 C 287.121094 113.917969 287.5625 113.828125 287.984375 113.652344 C 288.410156 113.476562 288.785156 113.226562 289.109375 112.902344 C 289.433594 112.578125 289.683594 112.203125 289.859375 111.78125 C 290.03125 111.355469 290.121094 110.914062 290.121094 110.453125 L 290.121094 106.222656 L 298.574219 106.222656 L 298.574219 110.453125 C 298.574219 110.914062 298.660156 111.355469 298.835938 111.78125 C 299.011719 112.203125 299.261719 112.578125 299.585938 112.902344 C 299.910156 113.226562 300.285156 113.476562 300.707031 113.652344 C 301.132812 113.828125 301.574219 113.917969 302.03125 113.917969 C 302.488281 113.917969 302.929688 113.828125 303.355469 113.652344 C 303.777344 113.476562 304.152344 113.226562 304.476562 112.902344 C 304.800781 112.578125 305.050781 112.203125 305.226562 111.78125 C 305.402344 111.355469 305.488281 110.914062 305.488281 110.453125 L 305.488281 91.140625 C 305.488281 90.664062 305.441406 90.195312 305.347656 89.730469 C 305.253906 89.265625 305.117188 88.8125 304.9375 88.375 C 304.753906 87.933594 304.53125 87.519531 304.269531 87.125 C 304.007812 86.730469 303.707031 86.363281 303.371094 86.03125 C 303.035156 85.695312 302.671875 85.394531 302.277344 85.128906 C 301.882812 84.867188 301.46875 84.644531 301.03125 84.460938 C 300.59375 84.28125 300.140625 84.144531 299.675781 84.050781 C 299.210938 83.957031 298.742188 83.910156 298.269531 83.910156 Z M 290.121094 99.296875 L 290.121094 91.140625 C 290.121094 91.054688 290.152344 90.984375 290.210938 90.925781 C 290.269531 90.867188 290.339844 90.835938 290.425781 90.835938 L 298.269531 90.835938 C 298.351562 90.835938 298.425781 90.867188 298.484375 90.925781 C 298.542969 90.984375 298.570312 91.054688 298.574219 91.140625 L 298.574219 99.296875 Z M 290.121094 99.296875 " clip-rule="nonzero"/></clipPath><linearGradient x1="17.998115" gradientTransform="matrix(3.841954, 0, 0, 3.847053, 238.638584, 37.360706)" y1="12.67912" x2="11.293708" gradientUnits="userSpaceOnUse" y2="19.603436" id="6381f8dde9"><stop stop-opacity="1" stop-color="rgb(99.623108%, 58.029175%, 0.567627%)" offset="0"/><stop stop-opacity="1" stop-color="rgb(99.620056%, 57.887268%, 0.570679%)" offset="0.03125"/><stop stop-opacity="1" stop-color="rgb(99.615479%, 57.603455%, 0.578308%)" offset="0.0625"/><stop stop-opacity="1" stop-color="rgb(99.609375%, 57.319641%, 0.587463%)" offset="0.09375"/><stop stop-opacity="1" stop-color="rgb(99.604797%, 57.035828%, 0.595093%)" offset="0.125"/><stop stop-opacity="1" stop-color="rgb(99.598694%, 56.752014%, 0.602722%)" offset="0.15625"/><stop stop-opacity="1" stop-color="rgb(99.594116%, 56.468201%, 0.610352%)" offset="0.1875"/><stop stop-opacity="1" stop-color="rgb(99.588013%, 56.184387%, 0.619507%)" offset="0.21875"/><stop stop-opacity="1" stop-color="rgb(99.583435%, 55.899048%, 0.627136%)" offset="0.25"/><stop stop-opacity="1" stop-color="rgb(99.578857%, 55.615234%, 0.634766%)" offset="0.28125"/><stop stop-opacity="1" stop-color="rgb(99.572754%, 55.331421%, 0.643921%)" offset="0.3125"/><stop stop-opacity="1" stop-color="rgb(99.568176%, 55.047607%, 0.65155%)" offset="0.34375"/><stop stop-opacity="1" stop-color="rgb(99.562073%, 54.763794%, 0.65918%)" offset="0.375"/><stop stop-opacity="1" stop-color="rgb(99.557495%, 54.47998%, 0.666809%)" offset="0.40625"/><stop stop-opacity="1" stop-color="rgb(99.551392%, 54.196167%, 0.675964%)" offset="0.418596"/><stop stop-opacity="1" stop-color="rgb(99.549866%, 54.05426%, 0.680542%)" offset="0.4375"/><stop stop-opacity="1" stop-color="rgb(99.546814%, 53.912354%, 0.683594%)" offset="0.46875"/><stop stop-opacity="1" stop-color="rgb(99.54071%, 53.62854%, 0.691223%)" offset="0.5"/><stop stop-opacity="1" stop-color="rgb(99.536133%, 53.344727%, 0.700378%)" offset="0.53125"/><stop stop-opacity="1" stop-color="rgb(99.530029%, 53.059387%, 0.708008%)" offset="0.5625"/><stop stop-opacity="1" stop-color="rgb(99.525452%, 52.775574%, 0.715637%)" offset="0.581404"/><stop stop-opacity="1" stop-color="rgb(99.5224%, 52.633667%, 0.720215%)" offset="0.59375"/><stop stop-opacity="1" stop-color="rgb(99.519348%, 52.49176%, 0.723267%)" offset="0.625"/><stop stop-opacity="1" stop-color="rgb(99.514771%, 52.207947%, 0.732422%)" offset="0.65625"/><stop stop-opacity="1" stop-color="rgb(99.508667%, 51.924133%, 0.740051%)" offset="0.6875"/><stop stop-opacity="1" stop-color="rgb(99.504089%, 51.64032%, 0.747681%)" offset="0.71875"/><stop stop-opacity="1" stop-color="rgb(99.497986%, 51.356506%, 0.756836%)" offset="0.75"/><stop stop-opacity="1" stop-color="rgb(99.493408%, 51.072693%, 0.764465%)" offset="0.78125"/><stop stop-opacity="1" stop-color="rgb(99.487305%, 50.788879%, 0.772095%)" offset="0.8125"/><stop stop-opacity="1" stop-color="rgb(99.482727%, 50.505066%, 0.779724%)" offset="0.84375"/><stop stop-opacity="1" stop-color="rgb(99.476624%, 50.219727%, 0.788879%)" offset="0.875"/><stop stop-opacity="1" stop-color="rgb(99.472046%, 49.935913%, 0.796509%)" offset="0.90625"/><stop stop-opacity="1" stop-color="rgb(99.465942%, 49.6521%, 0.804138%)" offset="0.9375"/><stop stop-opacity="1" stop-color="rgb(99.461365%, 49.368286%, 0.813293%)" offset="0.96875"/><stop stop-opacity="1" stop-color="rgb(99.455261%, 49.084473%, 0.820923%)" offset="1"/></linearGradient><clipPath id="13068d4704"><path d="M 310 83 L 318 83 L 318 114 L 310 114 Z M 310 83 " clip-rule="nonzero"/></clipPath><clipPath id="cccd70af04"><path d="M 313.558594 83.910156 C 313.097656 83.910156 312.65625 83.996094 312.234375 84.171875 C 311.808594 84.347656 311.4375 84.597656 311.113281 84.925781 C 310.789062 85.25 310.539062 85.625 310.363281 86.046875 C 310.1875 86.472656 310.097656 86.914062 310.097656 87.371094 L 310.097656 110.453125 C 310.097656 110.914062 310.1875 111.355469 310.363281 111.777344 C 310.539062 112.203125 310.789062 112.574219 311.113281 112.898438 C 311.4375 113.222656 311.8125 113.472656 312.234375 113.648438 C 312.65625 113.824219 313.097656 113.914062 313.558594 113.914062 C 314.015625 113.914062 314.457031 113.824219 314.878906 113.648438 C 315.300781 113.472656 315.675781 113.222656 316 112.898438 C 316.324219 112.574219 316.574219 112.203125 316.75 111.777344 C 316.925781 111.355469 317.015625 110.914062 317.015625 110.453125 L 317.015625 87.371094 C 317.015625 86.914062 316.925781 86.472656 316.75 86.046875 C 316.574219 85.625 316.324219 85.25 316 84.925781 C 315.675781 84.597656 315.304688 84.347656 314.878906 84.171875 C 314.457031 83.996094 314.015625 83.910156 313.558594 83.910156 Z M 313.558594 83.910156 " clip-rule="nonzero"/></clipPath><linearGradient x1="21.884639" gradientTransform="matrix(3.841954, 0, 0, 3.847053, 238.638584, 37.360706)" y1="13.537536" x2="17.116293" gradientUnits="userSpaceOnUse" y2="18.462127" id="d82a4e7f52"><stop stop-opacity="1" stop-color="rgb(99.661255%, 59.997559%, 0.511169%)" offset="0"/><stop stop-opacity="1" stop-color="rgb(99.658203%, 59.896851%, 0.514221%)" offset="0.03125"/><stop stop-opacity="1" stop-color="rgb(99.655151%, 59.693909%, 0.520325%)" offset="0.0625"/><stop stop-opacity="1" stop-color="rgb(99.650574%, 59.492493%, 0.524902%)" offset="0.09375"/><stop stop-opacity="1" stop-color="rgb(99.647522%, 59.291077%, 0.531006%)" offset="0.125"/><stop stop-opacity="1" stop-color="rgb(99.642944%, 59.088135%, 0.537109%)" offset="0.15625"/><stop stop-opacity="1" stop-color="rgb(99.639893%, 58.886719%, 0.543213%)" offset="0.182662"/><stop stop-opacity="1" stop-color="rgb(99.638367%, 58.786011%, 0.546265%)" offset="0.1875"/><stop stop-opacity="1" stop-color="rgb(99.635315%, 58.685303%, 0.547791%)" offset="0.21875"/><stop stop-opacity="1" stop-color="rgb(99.632263%, 58.482361%, 0.553894%)" offset="0.25"/><stop stop-opacity="1" stop-color="rgb(99.627686%, 58.280945%, 0.559998%)" offset="0.28125"/><stop stop-opacity="1" stop-color="rgb(99.624634%, 58.078003%, 0.566101%)" offset="0.3125"/><stop stop-opacity="1" stop-color="rgb(99.620056%, 57.876587%, 0.570679%)" offset="0.34375"/><stop stop-opacity="1" stop-color="rgb(99.617004%, 57.675171%, 0.576782%)" offset="0.375"/><stop stop-opacity="1" stop-color="rgb(99.612427%, 57.472229%, 0.582886%)" offset="0.40625"/><stop stop-opacity="1" stop-color="rgb(99.609375%, 57.270813%, 0.588989%)" offset="0.4375"/><stop stop-opacity="1" stop-color="rgb(99.604797%, 57.069397%, 0.593567%)" offset="0.46875"/><stop stop-opacity="1" stop-color="rgb(99.601746%, 56.866455%, 0.59967%)" offset="0.5"/><stop stop-opacity="1" stop-color="rgb(99.597168%, 56.665039%, 0.605774%)" offset="0.53125"/><stop stop-opacity="1" stop-color="rgb(99.594116%, 56.463623%, 0.611877%)" offset="0.5625"/><stop stop-opacity="1" stop-color="rgb(99.589539%, 56.260681%, 0.617981%)" offset="0.59375"/><stop stop-opacity="1" stop-color="rgb(99.586487%, 56.059265%, 0.622559%)" offset="0.625"/><stop stop-opacity="1" stop-color="rgb(99.581909%, 55.857849%, 0.628662%)" offset="0.65625"/><stop stop-opacity="1" stop-color="rgb(99.578857%, 55.654907%, 0.634766%)" offset="0.6875"/><stop stop-opacity="1" stop-color="rgb(99.575806%, 55.453491%, 0.640869%)" offset="0.71875"/><stop stop-opacity="1" stop-color="rgb(99.571228%, 55.250549%, 0.645447%)" offset="0.75"/><stop stop-opacity="1" stop-color="rgb(99.568176%, 55.049133%, 0.65155%)" offset="0.78125"/><stop stop-opacity="1" stop-color="rgb(99.563599%, 54.847717%, 0.657654%)" offset="0.8125"/><stop stop-opacity="1" stop-color="rgb(99.560547%, 54.644775%, 0.663757%)" offset="0.817338"/><stop stop-opacity="1" stop-color="rgb(99.559021%, 54.544067%, 0.666809%)" offset="0.84375"/><stop stop-opacity="1" stop-color="rgb(99.555969%, 54.443359%, 0.668335%)" offset="0.875"/><stop stop-opacity="1" stop-color="rgb(99.552917%, 54.241943%, 0.674438%)" offset="0.90625"/><stop stop-opacity="1" stop-color="rgb(99.54834%, 54.039001%, 0.680542%)" offset="0.9375"/><stop stop-opacity="1" stop-color="rgb(99.545288%, 53.837585%, 0.686646%)" offset="0.96875"/><stop stop-opacity="1" stop-color="rgb(99.54071%, 53.636169%, 0.691223%)" offset="1"/></linearGradient><clipPath id="e9f4b51775"><path d="M 242.65625 41.59375 L 357.566406 41.59375 L 357.566406 152.773438 L 242.65625 152.773438 Z M 242.65625 41.59375 " clip-rule="nonzero"/></clipPath><clipPath id="76570e8ca2"><path d="M 353.898438 95.453125 L 338.53125 95.453125 C 338.398438 95.46875 338.273438 95.496094 338.144531 95.527344 L 338.144531 86.910156 C 338.273438 86.945312 338.398438 86.96875 338.53125 86.988281 L 350.054688 86.988281 C 350.515625 86.988281 350.953125 86.898438 351.378906 86.722656 C 351.800781 86.546875 352.175781 86.296875 352.5 85.972656 C 352.824219 85.648438 353.074219 85.273438 353.25 84.851562 C 353.425781 84.425781 353.511719 83.984375 353.511719 83.523438 C 353.511719 83.066406 353.425781 82.625 353.25 82.199219 C 353.074219 81.777344 352.824219 81.402344 352.5 81.078125 C 352.175781 80.753906 351.800781 80.503906 351.378906 80.328125 C 350.953125 80.152344 350.515625 80.0625 350.054688 80.0625 L 338.53125 80.0625 C 338.398438 80.082031 338.273438 80.105469 338.144531 80.140625 L 338.144531 72.007812 C 338.144531 71.273438 338.070312 70.546875 337.929688 69.828125 C 337.785156 69.105469 337.570312 68.410156 337.289062 67.730469 C 337.011719 67.050781 336.664062 66.410156 336.257812 65.796875 C 335.851562 65.1875 335.386719 64.625 334.871094 64.105469 C 334.351562 63.585938 333.785156 63.125 333.175781 62.714844 C 332.566406 62.308594 331.925781 61.964844 331.246094 61.683594 C 330.570312 61.402344 329.871094 61.1875 329.152344 61.042969 C 328.433594 60.902344 327.710938 60.828125 326.976562 60.828125 L 318.859375 60.828125 C 318.890625 60.699219 318.917969 60.574219 318.933594 60.441406 L 318.933594 48.902344 C 318.9375 48.441406 318.847656 48 318.671875 47.574219 C 318.5 47.152344 318.25 46.777344 317.925781 46.449219 C 317.601562 46.125 317.226562 45.875 316.800781 45.699219 C 316.378906 45.523438 315.9375 45.433594 315.476562 45.433594 C 315.019531 45.433594 314.578125 45.523438 314.152344 45.699219 C 313.730469 45.875 313.355469 46.125 313.03125 46.449219 C 312.707031 46.777344 312.457031 47.152344 312.28125 47.574219 C 312.105469 48 312.019531 48.441406 312.019531 48.902344 L 312.019531 60.441406 C 312.039062 60.574219 312.0625 60.699219 312.097656 60.828125 L 303.492188 60.828125 C 303.523438 60.699219 303.550781 60.574219 303.566406 60.441406 L 303.566406 45.054688 C 303.566406 44.59375 303.480469 44.152344 303.304688 43.730469 C 303.128906 43.304688 302.878906 42.929688 302.554688 42.605469 C 302.230469 42.28125 301.855469 42.03125 301.433594 41.855469 C 301.007812 41.679688 300.570312 41.59375 300.109375 41.59375 C 299.652344 41.59375 299.210938 41.679688 298.785156 41.855469 C 298.363281 42.03125 297.988281 42.28125 297.664062 42.605469 C 297.339844 42.929688 297.089844 43.304688 296.914062 43.730469 C 296.738281 44.152344 296.652344 44.59375 296.652344 45.054688 L 296.652344 60.441406 C 296.667969 60.574219 296.695312 60.699219 296.730469 60.828125 L 288.121094 60.828125 C 288.15625 60.699219 288.183594 60.574219 288.199219 60.441406 L 288.199219 48.902344 C 288.199219 48.441406 288.113281 48 287.9375 47.578125 C 287.761719 47.152344 287.511719 46.777344 287.1875 46.453125 C 286.863281 46.128906 286.488281 45.878906 286.066406 45.703125 C 285.640625 45.527344 285.199219 45.441406 284.742188 45.441406 C 284.285156 45.441406 283.84375 45.527344 283.417969 45.703125 C 282.996094 45.878906 282.621094 46.128906 282.296875 46.453125 C 281.972656 46.777344 281.722656 47.152344 281.546875 47.578125 C 281.371094 48 281.285156 48.441406 281.285156 48.902344 L 281.285156 60.441406 C 281.300781 60.574219 281.328125 60.699219 281.359375 60.828125 L 273.238281 60.828125 C 272.507812 60.828125 271.78125 60.902344 271.0625 61.046875 C 270.34375 61.1875 269.644531 61.402344 268.96875 61.683594 C 268.292969 61.964844 267.648438 62.308594 267.039062 62.714844 C 266.429688 63.125 265.867188 63.585938 265.347656 64.105469 C 264.832031 64.625 264.367188 65.191406 263.960938 65.800781 C 263.554688 66.410156 263.210938 67.054688 262.929688 67.730469 C 262.648438 68.410156 262.433594 69.109375 262.292969 69.828125 C 262.148438 70.546875 262.074219 71.273438 262.074219 72.007812 L 262.074219 80.140625 C 261.949219 80.105469 261.820312 80.082031 261.691406 80.0625 L 250.164062 80.0625 C 249.707031 80.0625 249.265625 80.152344 248.839844 80.328125 C 248.417969 80.503906 248.042969 80.753906 247.71875 81.078125 C 247.394531 81.402344 247.144531 81.777344 246.96875 82.199219 C 246.792969 82.625 246.707031 83.066406 246.707031 83.523438 C 246.707031 83.984375 246.792969 84.425781 246.96875 84.851562 C 247.144531 85.273438 247.394531 85.648438 247.71875 85.972656 C 248.042969 86.296875 248.417969 86.546875 248.839844 86.722656 C 249.265625 86.898438 249.707031 86.988281 250.164062 86.988281 L 261.691406 86.988281 C 261.820312 86.96875 261.949219 86.945312 262.074219 86.910156 L 262.074219 95.527344 C 261.949219 95.496094 261.820312 95.46875 261.691406 95.453125 L 246.324219 95.453125 C 245.863281 95.453125 245.421875 95.539062 245 95.714844 C 244.574219 95.890625 244.203125 96.140625 243.878906 96.464844 C 243.554688 96.789062 243.304688 97.164062 243.128906 97.589844 C 242.953125 98.011719 242.863281 98.453125 242.863281 98.914062 C 242.863281 99.371094 242.953125 99.8125 243.128906 100.238281 C 243.304688 100.664062 243.554688 101.039062 243.878906 101.363281 C 244.203125 101.6875 244.574219 101.9375 245 102.113281 C 245.421875 102.289062 245.863281 102.375 246.324219 102.375 L 261.691406 102.375 C 261.820312 102.359375 261.949219 102.332031 262.074219 102.300781 L 262.074219 110.917969 C 261.949219 110.882812 261.820312 110.855469 261.691406 110.839844 L 250.164062 110.839844 C 249.707031 110.839844 249.265625 110.929688 248.84375 111.105469 C 248.417969 111.28125 248.046875 111.53125 247.722656 111.855469 C 247.398438 112.179688 247.148438 112.554688 246.972656 112.976562 C 246.800781 113.402344 246.710938 113.84375 246.710938 114.300781 C 246.710938 114.761719 246.800781 115.203125 246.972656 115.625 C 247.148438 116.050781 247.398438 116.421875 247.722656 116.75 C 248.046875 117.074219 248.417969 117.324219 248.84375 117.5 C 249.265625 117.675781 249.707031 117.761719 250.164062 117.765625 L 261.691406 117.765625 C 261.820312 117.746094 261.949219 117.722656 262.074219 117.6875 L 262.074219 125.820312 C 262.074219 126.554688 262.148438 127.28125 262.292969 128 C 262.433594 128.71875 262.648438 129.417969 262.929688 130.09375 C 263.210938 130.773438 263.554688 131.417969 263.960938 132.027344 C 264.367188 132.636719 264.832031 133.203125 265.347656 133.71875 C 265.867188 134.238281 266.429688 134.703125 267.039062 135.109375 C 267.648438 135.519531 268.292969 135.863281 268.96875 136.144531 C 269.644531 136.425781 270.34375 136.636719 271.0625 136.78125 C 271.78125 136.925781 272.507812 137 273.238281 137 L 281.285156 137 L 281.285156 145.078125 C 281.285156 145.539062 281.371094 145.980469 281.546875 146.402344 C 281.722656 146.828125 281.972656 147.203125 282.296875 147.527344 C 282.621094 147.851562 282.996094 148.101562 283.417969 148.277344 C 283.84375 148.453125 284.285156 148.539062 284.742188 148.539062 C 285.199219 148.539062 285.640625 148.453125 286.066406 148.277344 C 286.488281 148.101562 286.863281 147.851562 287.1875 147.527344 C 287.511719 147.203125 287.761719 146.828125 287.9375 146.402344 C 288.113281 145.980469 288.199219 145.539062 288.199219 145.078125 L 288.199219 137 L 296.652344 137 L 296.652344 148.925781 C 296.652344 149.382812 296.738281 149.824219 296.914062 150.25 C 297.089844 150.675781 297.339844 151.050781 297.664062 151.375 C 297.988281 151.699219 298.363281 151.949219 298.785156 152.125 C 299.210938 152.300781 299.652344 152.386719 300.109375 152.386719 C 300.570312 152.386719 301.007812 152.300781 301.433594 152.125 C 301.855469 151.949219 302.230469 151.699219 302.554688 151.375 C 302.878906 151.050781 303.128906 150.675781 303.304688 150.25 C 303.480469 149.824219 303.566406 149.382812 303.566406 148.925781 L 303.566406 137 L 312.019531 137 L 312.019531 145.078125 C 312.019531 145.535156 312.109375 145.976562 312.285156 146.402344 C 312.460938 146.824219 312.710938 147.199219 313.035156 147.523438 C 313.359375 147.847656 313.730469 148.097656 314.15625 148.273438 C 314.578125 148.449219 315.019531 148.535156 315.476562 148.535156 C 315.9375 148.535156 316.375 148.449219 316.800781 148.273438 C 317.222656 148.097656 317.597656 147.847656 317.921875 147.523438 C 318.246094 147.199219 318.496094 146.824219 318.671875 146.402344 C 318.847656 145.976562 318.933594 145.535156 318.933594 145.078125 L 318.933594 137 L 326.976562 137 C 327.710938 137 328.433594 136.925781 329.152344 136.78125 C 329.871094 136.640625 330.570312 136.425781 331.246094 136.144531 C 331.925781 135.863281 332.566406 135.519531 333.175781 135.113281 C 333.785156 134.703125 334.351562 134.242188 334.871094 133.722656 C 335.386719 133.203125 335.851562 132.636719 336.257812 132.027344 C 336.664062 131.417969 337.011719 130.773438 337.289062 130.097656 C 337.570312 129.417969 337.785156 128.71875 337.929688 128 C 338.070312 127.28125 338.144531 126.554688 338.144531 125.820312 L 338.144531 117.6875 C 338.273438 117.71875 338.398438 117.746094 338.53125 117.765625 L 350.054688 117.765625 C 350.511719 117.761719 350.953125 117.675781 351.378906 117.5 C 351.800781 117.324219 352.171875 117.074219 352.496094 116.75 C 352.820312 116.421875 353.070312 116.050781 353.246094 115.625 C 353.421875 115.203125 353.507812 114.761719 353.507812 114.300781 C 353.507812 113.84375 353.421875 113.402344 353.246094 112.976562 C 353.070312 112.554688 352.820312 112.179688 352.496094 111.855469 C 352.171875 111.53125 351.800781 111.28125 351.378906 111.105469 C 350.953125 110.929688 350.511719 110.839844 350.054688 110.839844 L 338.53125 110.839844 C 338.398438 110.859375 338.273438 110.882812 338.144531 110.917969 L 338.144531 102.300781 C 338.273438 102.332031 338.398438 102.359375 338.53125 102.375 L 353.898438 102.375 C 354.355469 102.375 354.796875 102.289062 355.21875 102.113281 C 355.644531 101.9375 356.019531 101.6875 356.34375 101.363281 C 356.667969 101.039062 356.917969 100.664062 357.089844 100.238281 C 357.265625 99.8125 357.355469 99.371094 357.355469 98.914062 C 357.355469 98.453125 357.265625 98.011719 357.089844 97.589844 C 356.917969 97.164062 356.667969 96.789062 356.34375 96.464844 C 356.019531 96.140625 355.644531 95.890625 355.21875 95.714844 C 354.796875 95.539062 354.355469 95.453125 353.898438 95.453125 Z M 331.230469 125.820312 C 331.230469 126.097656 331.203125 126.375 331.148438 126.648438 C 331.09375 126.925781 331.011719 127.191406 330.90625 127.449219 C 330.796875 127.707031 330.667969 127.953125 330.511719 128.183594 C 330.355469 128.417969 330.179688 128.632812 329.984375 128.828125 C 329.785156 129.027344 329.570312 129.203125 329.339844 129.359375 C 329.105469 129.511719 328.859375 129.644531 328.601562 129.75 C 328.34375 129.859375 328.078125 129.9375 327.804688 129.992188 C 327.53125 130.046875 327.253906 130.074219 326.976562 130.074219 L 273.238281 130.074219 C 272.960938 130.074219 272.683594 130.046875 272.410156 129.992188 C 272.136719 129.9375 271.871094 129.855469 271.613281 129.75 C 271.355469 129.644531 271.109375 129.511719 270.878906 129.355469 C 270.648438 129.203125 270.433594 129.023438 270.234375 128.828125 C 270.039062 128.628906 269.863281 128.414062 269.707031 128.183594 C 269.550781 127.949219 269.421875 127.707031 269.316406 127.449219 C 269.207031 127.191406 269.125 126.921875 269.074219 126.648438 C 269.019531 126.375 268.992188 126.097656 268.988281 125.820312 L 268.988281 72.007812 C 268.992188 71.726562 269.019531 71.453125 269.074219 71.175781 C 269.125 70.902344 269.207031 70.636719 269.316406 70.378906 C 269.421875 70.121094 269.550781 69.875 269.707031 69.644531 C 269.863281 69.414062 270.039062 69.199219 270.234375 69 C 270.433594 68.800781 270.648438 68.625 270.878906 68.46875 C 271.109375 68.316406 271.355469 68.183594 271.613281 68.078125 C 271.871094 67.96875 272.136719 67.890625 272.410156 67.835938 C 272.683594 67.78125 272.960938 67.753906 273.238281 67.753906 L 326.976562 67.753906 C 327.253906 67.753906 327.53125 67.78125 327.804688 67.835938 C 328.078125 67.886719 328.34375 67.96875 328.601562 68.078125 C 328.859375 68.183594 329.105469 68.3125 329.339844 68.46875 C 329.570312 68.625 329.785156 68.800781 329.984375 69 C 330.179688 69.195312 330.355469 69.410156 330.511719 69.644531 C 330.667969 69.875 330.796875 70.121094 330.90625 70.378906 C 331.011719 70.636719 331.09375 70.902344 331.148438 71.175781 C 331.203125 71.449219 331.230469 71.726562 331.230469 72.007812 Z M 331.230469 125.820312 " clip-rule="nonzero"/></clipPath><linearGradient x1="30.655962" gradientTransform="matrix(3.841954, 0, 0, 3.847053, 238.638584, 37.360706)" y1="0.863713" x2="1.844164" gradientUnits="userSpaceOnUse" y2="30.62053" id="4317205a06"><stop stop-opacity="1" stop-color="rgb(99.92981%, 74.333191%, 0.10376%)" offset="0"/><stop stop-opacity="1" stop-color="rgb(99.926758%, 74.180603%, 0.108337%)" offset="0.0078125"/><stop stop-opacity="1" stop-color="rgb(99.920654%, 73.875427%, 0.117493%)" offset="0.015625"/><stop stop-opacity="1" stop-color="rgb(99.914551%, 73.570251%, 0.125122%)" offset="0.0234375"/><stop stop-opacity="1" stop-color="rgb(99.909973%, 73.265076%, 0.134277%)" offset="0.03125"/><stop stop-opacity="1" stop-color="rgb(99.90387%, 72.961426%, 0.143433%)" offset="0.0390625"/><stop stop-opacity="1" stop-color="rgb(99.897766%, 72.65625%, 0.151062%)" offset="0.046875"/><stop stop-opacity="1" stop-color="rgb(99.891663%, 72.351074%, 0.160217%)" offset="0.0546875"/><stop stop-opacity="1" stop-color="rgb(99.887085%, 72.045898%, 0.169373%)" offset="0.0625"/><stop stop-opacity="1" stop-color="rgb(99.880981%, 71.740723%, 0.178528%)" offset="0.0703125"/><stop stop-opacity="1" stop-color="rgb(99.874878%, 71.435547%, 0.186157%)" offset="0.078125"/><stop stop-opacity="1" stop-color="rgb(99.868774%, 71.130371%, 0.195312%)" offset="0.0859375"/><stop stop-opacity="1" stop-color="rgb(99.864197%, 70.825195%, 0.204468%)" offset="0.09375"/><stop stop-opacity="1" stop-color="rgb(99.858093%, 70.52002%, 0.212097%)" offset="0.101562"/><stop stop-opacity="1" stop-color="rgb(99.85199%, 70.214844%, 0.221252%)" offset="0.109375"/><stop stop-opacity="1" stop-color="rgb(99.845886%, 69.909668%, 0.230408%)" offset="0.117187"/><stop stop-opacity="1" stop-color="rgb(99.841309%, 69.604492%, 0.238037%)" offset="0.125"/><stop stop-opacity="1" stop-color="rgb(99.835205%, 69.299316%, 0.247192%)" offset="0.132812"/><stop stop-opacity="1" stop-color="rgb(99.829102%, 68.994141%, 0.256348%)" offset="0.140625"/><stop stop-opacity="1" stop-color="rgb(99.822998%, 68.688965%, 0.263977%)" offset="0.148438"/><stop stop-opacity="1" stop-color="rgb(99.81842%, 68.385315%, 0.273132%)" offset="0.15625"/><stop stop-opacity="1" stop-color="rgb(99.812317%, 68.080139%, 0.282288%)" offset="0.164063"/><stop stop-opacity="1" stop-color="rgb(99.806213%, 67.774963%, 0.289917%)" offset="0.171875"/><stop stop-opacity="1" stop-color="rgb(99.80011%, 67.469788%, 0.299072%)" offset="0.179687"/><stop stop-opacity="1" stop-color="rgb(99.795532%, 67.164612%, 0.308228%)" offset="0.1875"/><stop stop-opacity="1" stop-color="rgb(99.789429%, 66.859436%, 0.315857%)" offset="0.195313"/><stop stop-opacity="1" stop-color="rgb(99.783325%, 66.55426%, 0.325012%)" offset="0.203125"/><stop stop-opacity="1" stop-color="rgb(99.777222%, 66.249084%, 0.334167%)" offset="0.210938"/><stop stop-opacity="1" stop-color="rgb(99.772644%, 65.943909%, 0.341797%)" offset="0.21875"/><stop stop-opacity="1" stop-color="rgb(99.766541%, 65.638733%, 0.350952%)" offset="0.226563"/><stop stop-opacity="1" stop-color="rgb(99.760437%, 65.333557%, 0.360107%)" offset="0.234375"/><stop stop-opacity="1" stop-color="rgb(99.754333%, 65.028381%, 0.367737%)" offset="0.242188"/><stop stop-opacity="1" stop-color="rgb(99.749756%, 64.723206%, 0.376892%)" offset="0.25"/><stop stop-opacity="1" stop-color="rgb(99.743652%, 64.41803%, 0.386047%)" offset="0.257812"/><stop stop-opacity="1" stop-color="rgb(99.737549%, 64.112854%, 0.393677%)" offset="0.265625"/><stop stop-opacity="1" stop-color="rgb(99.731445%, 63.807678%, 0.402832%)" offset="0.273438"/><stop stop-opacity="1" stop-color="rgb(99.726868%, 63.504028%, 0.411987%)" offset="0.28125"/><stop stop-opacity="1" stop-color="rgb(99.720764%, 63.198853%, 0.419617%)" offset="0.289063"/><stop stop-opacity="1" stop-color="rgb(99.714661%, 62.893677%, 0.428772%)" offset="0.296875"/><stop stop-opacity="1" stop-color="rgb(99.708557%, 62.588501%, 0.437927%)" offset="0.304688"/><stop stop-opacity="1" stop-color="rgb(99.703979%, 62.283325%, 0.445557%)" offset="0.3125"/><stop stop-opacity="1" stop-color="rgb(99.697876%, 61.978149%, 0.454712%)" offset="0.320312"/><stop stop-opacity="1" stop-color="rgb(99.691772%, 61.672974%, 0.463867%)" offset="0.328125"/><stop stop-opacity="1" stop-color="rgb(99.685669%, 61.367798%, 0.471497%)" offset="0.335938"/><stop stop-opacity="1" stop-color="rgb(99.681091%, 61.062622%, 0.480652%)" offset="0.34375"/><stop stop-opacity="1" stop-color="rgb(99.674988%, 60.757446%, 0.489807%)" offset="0.351562"/><stop stop-opacity="1" stop-color="rgb(99.668884%, 60.452271%, 0.498962%)" offset="0.359375"/><stop stop-opacity="1" stop-color="rgb(99.662781%, 60.147095%, 0.506592%)" offset="0.367188"/><stop stop-opacity="1" stop-color="rgb(99.658203%, 59.841919%, 0.515747%)" offset="0.375"/><stop stop-opacity="1" stop-color="rgb(99.6521%, 59.536743%, 0.524902%)" offset="0.382812"/><stop stop-opacity="1" stop-color="rgb(99.645996%, 59.231567%, 0.532532%)" offset="0.390625"/><stop stop-opacity="1" stop-color="rgb(99.639893%, 58.926392%, 0.541687%)" offset="0.398438"/><stop stop-opacity="1" stop-color="rgb(99.635315%, 58.622742%, 0.550842%)" offset="0.40625"/><stop stop-opacity="1" stop-color="rgb(99.629211%, 58.317566%, 0.558472%)" offset="0.414062"/><stop stop-opacity="1" stop-color="rgb(99.623108%, 58.01239%, 0.567627%)" offset="0.421875"/><stop stop-opacity="1" stop-color="rgb(99.617004%, 57.707214%, 0.576782%)" offset="0.429687"/><stop stop-opacity="1" stop-color="rgb(99.612427%, 57.402039%, 0.584412%)" offset="0.4375"/><stop stop-opacity="1" stop-color="rgb(99.606323%, 57.096863%, 0.593567%)" offset="0.445312"/><stop stop-opacity="1" stop-color="rgb(99.60022%, 56.791687%, 0.602722%)" offset="0.453125"/><stop stop-opacity="1" stop-color="rgb(99.594116%, 56.486511%, 0.610352%)" offset="0.460938"/><stop stop-opacity="1" stop-color="rgb(99.589539%, 56.181335%, 0.619507%)" offset="0.46875"/><stop stop-opacity="1" stop-color="rgb(99.583435%, 55.87616%, 0.628662%)" offset="0.476562"/><stop stop-opacity="1" stop-color="rgb(99.577332%, 55.570984%, 0.636292%)" offset="0.484375"/><stop stop-opacity="1" stop-color="rgb(99.571228%, 55.265808%, 0.645447%)" offset="0.492187"/><stop stop-opacity="1" stop-color="rgb(99.56665%, 54.960632%, 0.654602%)" offset="0.499535"/><stop stop-opacity="1" stop-color="rgb(99.563599%, 54.808044%, 0.65918%)" offset="0.5"/><stop stop-opacity="1" stop-color="rgb(99.560547%, 54.655457%, 0.662231%)" offset="0.500465"/><stop stop-opacity="1" stop-color="rgb(99.557495%, 54.502869%, 0.666809%)" offset="0.507812"/><stop stop-opacity="1" stop-color="rgb(99.554443%, 54.350281%, 0.671387%)" offset="0.515625"/><stop stop-opacity="1" stop-color="rgb(99.54834%, 54.045105%, 0.680542%)" offset="0.523438"/><stop stop-opacity="1" stop-color="rgb(99.543762%, 53.741455%, 0.688171%)" offset="0.53125"/><stop stop-opacity="1" stop-color="rgb(99.537659%, 53.436279%, 0.697327%)" offset="0.539062"/><stop stop-opacity="1" stop-color="rgb(99.531555%, 53.131104%, 0.706482%)" offset="0.546875"/><stop stop-opacity="1" stop-color="rgb(99.525452%, 52.825928%, 0.714111%)" offset="0.554688"/><stop stop-opacity="1" stop-color="rgb(99.520874%, 52.520752%, 0.723267%)" offset="0.5625"/><stop stop-opacity="1" stop-color="rgb(99.514771%, 52.215576%, 0.732422%)" offset="0.570312"/><stop stop-opacity="1" stop-color="rgb(99.508667%, 51.9104%, 0.740051%)" offset="0.578125"/><stop stop-opacity="1" stop-color="rgb(99.502563%, 51.605225%, 0.749207%)" offset="0.585937"/><stop stop-opacity="1" stop-color="rgb(99.497986%, 51.300049%, 0.758362%)" offset="0.59375"/><stop stop-opacity="1" stop-color="rgb(99.491882%, 50.994873%, 0.765991%)" offset="0.601562"/><stop stop-opacity="1" stop-color="rgb(99.485779%, 50.689697%, 0.775146%)" offset="0.609375"/><stop stop-opacity="1" stop-color="rgb(99.479675%, 50.384521%, 0.784302%)" offset="0.617188"/><stop stop-opacity="1" stop-color="rgb(99.475098%, 50.079346%, 0.791931%)" offset="0.625"/><stop stop-opacity="1" stop-color="rgb(99.468994%, 49.77417%, 0.801086%)" offset="0.632812"/><stop stop-opacity="1" stop-color="rgb(99.462891%, 49.468994%, 0.810242%)" offset="0.640625"/><stop stop-opacity="1" stop-color="rgb(99.456787%, 49.163818%, 0.817871%)" offset="0.648438"/><stop stop-opacity="1" stop-color="rgb(99.452209%, 48.860168%, 0.827026%)" offset="0.65625"/><stop stop-opacity="1" stop-color="rgb(99.446106%, 48.554993%, 0.836182%)" offset="0.664062"/><stop stop-opacity="1" stop-color="rgb(99.440002%, 48.249817%, 0.845337%)" offset="0.671875"/><stop stop-opacity="1" stop-color="rgb(99.433899%, 47.944641%, 0.852966%)" offset="0.679687"/><stop stop-opacity="1" stop-color="rgb(99.429321%, 47.639465%, 0.862122%)" offset="0.6875"/><stop stop-opacity="1" stop-color="rgb(99.423218%, 47.33429%, 0.871277%)" offset="0.695312"/><stop stop-opacity="1" stop-color="rgb(99.417114%, 47.029114%, 0.878906%)" offset="0.703125"/><stop stop-opacity="1" stop-color="rgb(99.411011%, 46.723938%, 0.888062%)" offset="0.710938"/><stop stop-opacity="1" stop-color="rgb(99.406433%, 46.418762%, 0.897217%)" offset="0.71875"/><stop stop-opacity="1" stop-color="rgb(99.40033%, 46.113586%, 0.904846%)" offset="0.726562"/><stop stop-opacity="1" stop-color="rgb(99.394226%, 45.808411%, 0.914001%)" offset="0.734375"/><stop stop-opacity="1" stop-color="rgb(99.388123%, 45.503235%, 0.923157%)" offset="0.742187"/><stop stop-opacity="1" stop-color="rgb(99.383545%, 45.198059%, 0.930786%)" offset="0.75"/><stop stop-opacity="1" stop-color="rgb(99.377441%, 44.892883%, 0.939941%)" offset="0.757812"/><stop stop-opacity="1" stop-color="rgb(99.371338%, 44.587708%, 0.949097%)" offset="0.765625"/><stop stop-opacity="1" stop-color="rgb(99.365234%, 44.284058%, 0.956726%)" offset="0.773438"/><stop stop-opacity="1" stop-color="rgb(99.360657%, 43.978882%, 0.965881%)" offset="0.78125"/><stop stop-opacity="1" stop-color="rgb(99.354553%, 43.673706%, 0.975037%)" offset="0.789062"/><stop stop-opacity="1" stop-color="rgb(99.34845%, 43.36853%, 0.982666%)" offset="0.796875"/><stop stop-opacity="1" stop-color="rgb(99.342346%, 43.063354%, 0.991821%)" offset="0.804688"/><stop stop-opacity="1" stop-color="rgb(99.337769%, 42.758179%, 1.000977%)" offset="0.8125"/><stop stop-opacity="1" stop-color="rgb(99.331665%, 42.453003%, 1.008606%)" offset="0.820313"/><stop stop-opacity="1" stop-color="rgb(99.325562%, 42.147827%, 1.017761%)" offset="0.828125"/><stop stop-opacity="1" stop-color="rgb(99.319458%, 41.842651%, 1.026917%)" offset="0.835937"/><stop stop-opacity="1" stop-color="rgb(99.31488%, 41.537476%, 1.034546%)" offset="0.84375"/><stop stop-opacity="1" stop-color="rgb(99.308777%, 41.2323%, 1.043701%)" offset="0.851562"/><stop stop-opacity="1" stop-color="rgb(99.302673%, 40.927124%, 1.052856%)" offset="0.859375"/><stop stop-opacity="1" stop-color="rgb(99.29657%, 40.621948%, 1.060486%)" offset="0.867188"/><stop stop-opacity="1" stop-color="rgb(99.291992%, 40.316772%, 1.069641%)" offset="0.875"/><stop stop-opacity="1" stop-color="rgb(99.285889%, 40.011597%, 1.078796%)" offset="0.882812"/><stop stop-opacity="1" stop-color="rgb(99.279785%, 39.706421%, 1.086426%)" offset="0.890625"/><stop stop-opacity="1" stop-color="rgb(99.273682%, 39.402771%, 1.095581%)" offset="0.898438"/><stop stop-opacity="1" stop-color="rgb(99.269104%, 39.097595%, 1.104736%)" offset="0.90625"/><stop stop-opacity="1" stop-color="rgb(99.263%, 38.792419%, 1.112366%)" offset="0.914063"/><stop stop-opacity="1" stop-color="rgb(99.256897%, 38.487244%, 1.121521%)" offset="0.921875"/><stop stop-opacity="1" stop-color="rgb(99.250793%, 38.182068%, 1.130676%)" offset="0.929687"/><stop stop-opacity="1" stop-color="rgb(99.246216%, 37.876892%, 1.138306%)" offset="0.9375"/><stop stop-opacity="1" stop-color="rgb(99.240112%, 37.571716%, 1.147461%)" offset="0.945312"/><stop stop-opacity="1" stop-color="rgb(99.234009%, 37.266541%, 1.156616%)" offset="0.953125"/><stop stop-opacity="1" stop-color="rgb(99.227905%, 36.961365%, 1.165771%)" offset="0.960938"/><stop stop-opacity="1" stop-color="rgb(99.221802%, 36.656189%, 1.173401%)" offset="0.96875"/><stop stop-opacity="1" stop-color="rgb(99.21875%, 36.485291%, 1.177979%)" offset="1"/></linearGradient><clipPath id="a3c0cbedd4"><path d="M 451.820312 113 L 516 113 L 516 144 L 451.820312 144 Z M 451.820312 113 " clip-rule="nonzero"/></clipPath><clipPath id="3db1b383ab"><path d="M 451.820312 84 L 543 84 L 543 120 L 451.820312 120 Z M 451.820312 84 " clip-rule="nonzero"/></clipPath><clipPath id="9b35de24d9"><path d="M 451.820312 60 L 543 60 L 543 90 L 451.820312 90 Z M 451.820312 60 " clip-rule="nonzero"/></clipPath><clipPath id="6502b5d1fb"><path d="M 451.820312 46 L 543 46 L 543 66 L 451.820312 66 Z M 451.820312 46 " clip-rule="nonzero"/></clipPath><clipPath id="fcd8e8f5b1"><path d="M 173.683594 74.089844 L 219.203125 74.089844 L 219.203125 119.609375 L 173.683594 119.609375 Z M 173.683594 74.089844 " clip-rule="nonzero"/></clipPath><clipPath id="70866f32bb"><path d="M 381.671875 74.089844 L 427.1875 74.089844 L 427.1875 119.609375 L 381.671875 119.609375 Z M 381.671875 74.089844 " clip-rule="nonzero"/></clipPath></defs><g clip-path="url(#1426c4d181)"><path fill="#427db7" d="M 145.527344 41.308594 L 45.058594 41.308594 C 42.117188 41.308594 39.71875 43.621094 39.71875 46.449219 L 39.71875 64.238281 C 39.71875 67.0625 42.125 69.375 45.058594 69.375 L 145.527344 69.375 C 148.460938 69.375 150.867188 67.0625 150.867188 64.238281 L 150.867188 46.449219 C 150.867188 43.621094 148.46875 41.308594 145.527344 41.308594 Z M 57.679688 58.625 C 57.679688 59.671875 56.789062 60.523438 55.695312 60.523438 L 48.878906 60.523438 C 47.789062 60.523438 46.898438 59.671875 46.898438 58.625 L 46.898438 52.066406 C 46.898438 51.019531 47.789062 50.160156 48.878906 50.160156 L 55.695312 50.160156 C 56.789062 50.160156 57.679688 51.019531 57.679688 52.066406 Z M 124.414062 59.796875 C 124.414062 60.199219 124.074219 60.523438 123.660156 60.523438 L 120.28125 60.523438 C 119.867188 60.523438 119.523438 60.199219 119.523438 59.796875 L 119.523438 50.890625 C 119.523438 50.488281 119.863281 50.160156 120.28125 50.160156 L 123.660156 50.160156 C 124.078125 50.160156 124.414062 50.492188 124.414062 50.890625 Z M 134.050781 59.796875 C 134.050781 60.199219 133.710938 60.523438 133.292969 60.523438 L 129.914062 60.523438 C 129.5 60.523438 129.160156 60.199219 129.160156 59.796875 L 129.160156 50.890625 C 129.160156 50.488281 129.5 50.160156 129.914062 50.160156 L 133.292969 50.160156 C 133.710938 50.160156 134.050781 50.492188 134.050781 50.890625 Z M 143.6875 59.796875 C 143.6875 60.199219 143.34375 60.523438 142.933594 60.523438 L 139.554688 60.523438 C 139.136719 60.523438 138.796875 60.199219 138.796875 59.796875 L 138.796875 50.890625 C 138.796875 50.488281 139.136719 50.160156 139.554688 50.160156 L 142.933594 50.160156 C 143.34375 50.160156 143.6875 50.492188 143.6875 50.890625 Z M 143.6875 59.796875 " fill-opacity="1" fill-rule="evenodd"/></g><path fill="#3a3b53" d="M 143.410156 78.640625 C 143.757812 78.640625 144.042969 78.359375 144.042969 78.011719 L 144.042969 74.21875 C 144.042969 73.863281 143.757812 73.582031 143.410156 73.582031 L 47.96875 73.582031 C 47.617188 73.582031 47.328125 73.863281 47.328125 74.21875 L 47.328125 78.011719 C 47.328125 78.359375 47.617188 78.640625 47.96875 78.640625 Z M 143.410156 78.640625 " fill-opacity="1" fill-rule="evenodd"/><path fill="#3a3b53" d="M 143.410156 120.0625 C 143.757812 120.0625 144.042969 119.777344 144.042969 119.429688 L 144.042969 115.640625 C 144.042969 115.285156 143.757812 115 143.410156 115 L 47.96875 115 C 47.617188 115 47.328125 115.285156 47.328125 115.640625 L 47.328125 119.429688 C 47.328125 119.777344 47.617188 120.0625 47.96875 120.0625 Z M 143.410156 120.0625 " fill-opacity="1" fill-rule="evenodd"/><g clip-path="url(#bf5aecc751)"><path fill="#427db7" d="M 145.527344 83 L 45.058594 83 C 42.117188 83 39.71875 85.3125 39.71875 88.140625 L 39.71875 105.929688 C 39.71875 108.753906 42.125 111.066406 45.058594 111.066406 L 145.527344 111.066406 C 148.460938 111.066406 150.867188 108.753906 150.867188 105.929688 L 150.867188 88.140625 C 150.867188 85.3125 148.46875 83 145.527344 83 Z M 57.679688 100.316406 C 57.679688 101.363281 56.789062 102.214844 55.695312 102.214844 L 48.878906 102.214844 C 47.789062 102.214844 46.898438 101.363281 46.898438 100.316406 L 46.898438 93.757812 C 46.898438 92.710938 47.789062 91.855469 48.878906 91.855469 L 55.695312 91.855469 C 56.789062 91.855469 57.679688 92.710938 57.679688 93.757812 Z M 124.414062 101.488281 C 124.414062 101.890625 124.074219 102.214844 123.660156 102.214844 L 120.28125 102.214844 C 119.867188 102.214844 119.523438 101.890625 119.523438 101.488281 L 119.523438 92.582031 C 119.523438 92.179688 119.863281 91.855469 120.28125 91.855469 L 123.660156 91.855469 C 124.078125 91.855469 124.414062 92.183594 124.414062 92.582031 Z M 134.050781 101.488281 C 134.050781 101.890625 133.710938 102.214844 133.292969 102.214844 L 129.914062 102.214844 C 129.5 102.214844 129.160156 101.890625 129.160156 101.488281 L 129.160156 92.582031 C 129.160156 92.179688 129.5 91.855469 129.914062 91.855469 L 133.292969 91.855469 C 133.710938 91.855469 134.050781 92.183594 134.050781 92.582031 Z M 143.6875 101.488281 C 143.6875 101.890625 143.34375 102.214844 142.933594 102.214844 L 139.554688 102.214844 C 139.136719 102.214844 138.796875 101.890625 138.796875 101.488281 L 138.796875 92.582031 C 138.796875 92.179688 139.136719 91.855469 139.554688 91.855469 L 142.933594 91.855469 C 143.34375 91.855469 143.6875 92.183594 143.6875 92.582031 Z M 143.6875 101.488281 " fill-opacity="1" fill-rule="evenodd"/></g><g clip-path="url(#4bc353ae4a)"><path fill="#427db7" d="M 145.527344 124.148438 L 45.058594 124.148438 C 42.117188 124.148438 39.71875 126.460938 39.71875 129.289062 L 39.71875 147.078125 C 39.71875 149.902344 42.125 152.214844 45.058594 152.214844 L 145.527344 152.214844 C 148.460938 152.214844 150.867188 149.902344 150.867188 147.078125 L 150.867188 129.289062 C 150.867188 126.460938 148.46875 124.148438 145.527344 124.148438 Z M 57.679688 141.460938 C 57.679688 142.507812 56.789062 143.363281 55.695312 143.363281 L 48.878906 143.363281 C 47.789062 143.363281 46.898438 142.507812 46.898438 141.460938 L 46.898438 134.90625 C 46.898438 133.859375 47.789062 133.003906 48.878906 133.003906 L 55.695312 133.003906 C 56.789062 133.003906 57.679688 133.859375 57.679688 134.90625 Z M 124.414062 142.636719 C 124.414062 143.039062 124.074219 143.363281 123.660156 143.363281 L 120.28125 143.363281 C 119.867188 143.363281 119.523438 143.039062 119.523438 142.636719 L 119.523438 133.730469 C 119.523438 133.328125 119.863281 133.003906 120.28125 133.003906 L 123.660156 133.003906 C 124.078125 133.003906 124.414062 133.332031 124.414062 133.730469 Z M 134.050781 142.636719 C 134.050781 143.039062 133.710938 143.363281 133.292969 143.363281 L 129.914062 143.363281 C 129.5 143.363281 129.160156 143.039062 129.160156 142.636719 L 129.160156 133.730469 C 129.160156 133.328125 129.5 133.003906 129.914062 133.003906 L 133.292969 133.003906 C 133.710938 133.003906 134.050781 133.332031 134.050781 133.730469 Z M 143.6875 142.636719 C 143.6875 143.039062 143.34375 143.363281 142.933594 143.363281 L 139.554688 143.363281 C 139.136719 143.363281 138.796875 143.039062 138.796875 142.636719 L 138.796875 133.730469 C 138.796875 133.328125 139.136719 133.003906 139.554688 133.003906 L 142.933594 133.003906 C 143.34375 133.003906 143.6875 133.332031 143.6875 133.730469 Z M 143.6875 142.636719 " fill-opacity="1" fill-rule="evenodd"/></g><g clip-path="url(#379c8f4a12)"><g clip-path="url(#f60cbee915)"><path fill="url(#6381f8dde9)" d="M 283.207031 83.910156 L 283.207031 113.917969 L 305.488281 113.917969 L 305.488281 83.910156 Z M 283.207031 83.910156 " fill-rule="nonzero"/></g></g><g clip-path="url(#13068d4704)"><g clip-path="url(#cccd70af04)"><path fill="url(#d82a4e7f52)" d="M 310.097656 83.910156 L 310.097656 113.914062 L 317.015625 113.914062 L 317.015625 83.910156 Z M 310.097656 83.910156 " fill-rule="nonzero"/></g></g><g clip-path="url(#e9f4b51775)"><g clip-path="url(#76570e8ca2)"><path fill="url(#4317205a06)" d="M 242.863281 41.59375 L 242.863281 152.386719 L 357.355469 152.386719 L 357.355469 41.59375 Z M 242.863281 41.59375 " fill-rule="nonzero"/></g></g><path fill="#44dafd" d="M 536.171875 112.378906 C 531.222656 112.378906 527.25 116.355469 527.25 121.304688 C 527.25 126.203125 531.222656 130.175781 536.171875 130.175781 C 541.046875 130.175781 545.097656 126.203125 545.097656 121.304688 C 545.097656 116.355469 541.046875 112.378906 536.171875 112.378906 Z M 536.171875 112.378906 " fill-opacity="1" fill-rule="evenodd"/><path fill="#44dafd" d="M 524.453125 121.304688 C 524.453125 114.867188 529.710938 109.582031 536.171875 109.582031 C 542.609375 109.582031 547.816406 114.867188 547.816406 121.304688 C 547.816406 127.765625 542.558594 132.894531 536.171875 132.894531 C 529.710938 132.894531 524.453125 127.765625 524.453125 121.304688 Z M 534.070312 94.476562 L 532.96875 99.375 C 532.917969 99.886719 532.453125 100.273438 531.941406 100.402344 C 529.25 100.992188 526.660156 102.09375 524.375 103.605469 C 523.914062 103.863281 523.324219 103.863281 522.886719 103.605469 L 518.707031 100.863281 L 515.707031 103.785156 L 518.453125 108.019531 C 518.707031 108.480469 518.707031 109.121094 518.375 109.582031 C 516.886719 111.867188 515.785156 114.351562 515.324219 117.070312 C 515.195312 117.609375 514.808594 118.046875 514.21875 118.175781 L 509.398438 119.226562 L 509.398438 123.40625 L 514.21875 124.433594 C 514.808594 124.5625 515.195312 125.023438 515.324219 125.535156 C 515.785156 128.28125 516.886719 130.765625 518.375 133.101562 C 518.707031 133.5625 518.707031 134.152344 518.375 134.589844 L 515.707031 138.769531 L 518.707031 141.769531 L 522.886719 139.027344 C 523.324219 138.769531 523.914062 138.769531 524.375 139.027344 C 526.660156 140.511719 529.25 141.566406 531.941406 142.15625 C 532.453125 142.28125 532.917969 142.667969 532.96875 143.207031 L 534.070312 148.078125 L 538.175781 148.078125 L 539.300781 143.207031 C 539.429688 142.667969 539.816406 142.28125 540.40625 142.15625 C 543.074219 141.640625 545.613281 140.589844 547.894531 139.027344 C 548.355469 138.769531 548.921875 138.691406 549.382812 139.027344 L 553.613281 141.769531 L 556.5625 138.769531 L 553.871094 134.589844 C 553.5625 134.152344 553.5625 133.5625 553.871094 133.101562 C 555.382812 130.765625 556.484375 128.226562 557 125.535156 C 557.074219 125.023438 557.539062 124.5625 558.050781 124.433594 L 563 123.40625 L 563 119.226562 L 558.050781 118.175781 C 557.539062 118.046875 557.074219 117.609375 557 117.070312 C 556.484375 114.351562 555.433594 111.867188 553.871094 109.582031 C 553.5625 109.121094 553.5625 108.480469 553.871094 108.019531 L 556.5625 103.785156 L 553.691406 100.863281 L 549.382812 103.605469 C 548.921875 103.914062 548.355469 103.863281 547.894531 103.605469 C 545.613281 102.042969 542.996094 100.992188 540.328125 100.402344 C 539.816406 100.273438 539.429688 99.886719 539.300781 99.375 L 538.175781 94.476562 Z M 534.070312 94.476562 " fill-opacity="1" fill-rule="evenodd"/><g clip-path="url(#a3c0cbedd4)"><path fill="#44dafd" d="M 506.601562 121.714844 C 497.933594 122.148438 487.828125 121.894531 479.238281 121.046875 C 472.261719 120.40625 457.949219 118.457031 451.820312 113.941406 L 451.820312 133.820312 C 451.820312 135.050781 453.589844 136.230469 454.488281 136.742188 C 457.359375 138.511719 461.257812 139.617188 464.515625 140.332031 C 479.367188 143.925781 500.550781 144.308594 515.785156 142.746094 L 512.988281 139.949219 C 512.527344 139.488281 512.398438 138.769531 512.785156 138.179688 L 515.578125 133.820312 C 514.21875 131.410156 513.425781 129.714844 512.785156 126.972656 L 507.707031 125.867188 C 507.039062 125.664062 506.601562 125.152344 506.601562 124.507812 Z M 458.410156 127.304688 C 460.234375 127.304688 460.234375 130.101562 458.410156 130.101562 C 456.566406 130.101562 456.566406 127.304688 458.410156 127.304688 Z M 458.410156 127.304688 " fill-opacity="1" fill-rule="evenodd"/></g><g clip-path="url(#3db1b383ab)"><path fill="#44dafd" d="M 464.515625 115.96875 C 476.902344 118.894531 493.753906 119.609375 506.601562 118.96875 C 506.601562 118.175781 506.472656 117.019531 507.707031 116.765625 L 512.785156 115.636719 C 513.425781 112.917969 514.144531 111.222656 515.578125 108.8125 L 512.785156 104.375 C 512.398438 103.785156 512.527344 103.070312 512.988281 102.605469 L 517.527344 98.117188 C 517.988281 97.65625 518.707031 97.605469 519.222656 97.9375 L 523.605469 100.785156 C 526.070312 99.375 527.761719 98.65625 530.503906 97.863281 L 531.609375 92.785156 C 531.738281 92.144531 532.328125 91.679688 532.96875 91.679688 L 539.300781 91.679688 C 539.945312 91.679688 540.535156 92.144531 540.660156 92.785156 L 541.765625 97.863281 L 542.945312 98.195312 L 542.945312 84.242188 C 539.429688 86.859375 533.558594 88.347656 530.890625 88.9375 C 515.65625 92.578125 494.804688 92.914062 479.238281 91.425781 C 472.261719 90.707031 457.949219 88.808594 451.820312 84.242188 L 451.820312 109.453125 C 451.820312 110.6875 453.589844 111.867188 454.488281 112.378906 C 457.359375 114.070312 461.257812 115.199219 464.515625 115.96875 Z M 458.410156 102.09375 C 460.234375 102.09375 460.234375 104.839844 458.410156 104.839844 C 456.566406 104.839844 456.566406 102.09375 458.410156 102.09375 Z M 458.410156 102.09375 " fill-opacity="1" fill-rule="evenodd"/></g><g clip-path="url(#9b35de24d9)"><path fill="#44dafd" d="M 464.515625 86.269531 C 479.367188 89.785156 499.960938 90.167969 515.195312 88.679688 C 522.042969 87.960938 534.199219 86.269531 540.277344 82.757812 C 541.125 82.242188 542.945312 80.984375 542.945312 79.832031 L 542.945312 60.46875 C 539.429688 63.085938 533.558594 64.570312 530.890625 65.238281 C 520.527344 67.648438 507.960938 68.496094 497.421875 68.496094 C 491.34375 68.496094 485.238281 68.238281 479.238281 67.648438 C 472.210938 66.933594 457.949219 65.035156 451.820312 60.46875 L 451.820312 79.832031 C 451.820312 80.984375 453.589844 82.242188 454.488281 82.757812 C 457.359375 84.449219 461.257812 85.5 464.515625 86.269531 Z M 458.410156 74.675781 C 460.234375 74.675781 460.234375 77.472656 458.410156 77.472656 C 456.566406 77.472656 456.566406 74.675781 458.410156 74.675781 Z M 458.410156 74.675781 " fill-opacity="1" fill-rule="evenodd"/></g><g clip-path="url(#6502b5d1fb)"><path fill="#44dafd" d="M 464.515625 62.496094 C 479.367188 66.007812 500.011719 66.34375 515.195312 64.855469 C 522.042969 64.1875 534.199219 62.496094 540.277344 58.929688 C 543.789062 56.828125 543.789062 55.210938 540.277344 53.058594 C 537.328125 51.363281 533.429688 50.261719 530.25 49.464844 C 520.066406 47.054688 507.757812 46.285156 497.421875 46.285156 C 491.496094 46.285156 485.496094 46.542969 479.570312 47.054688 C 472.722656 47.773438 460.539062 49.464844 454.488281 53.058594 C 450.972656 55.132812 450.972656 56.828125 454.488281 58.980469 C 457.359375 60.675781 461.257812 61.726562 464.515625 62.496094 Z M 464.515625 62.496094 " fill-opacity="1" fill-rule="evenodd"/></g><g clip-path="url(#fcd8e8f5b1)"><path fill="#ff3131" d="M 173.699219 79.484375 L 191.207031 96.992188 L 173.699219 114.5 L 179.09375 119.894531 L 196.605469 102.386719 L 214.113281 119.894531 L 219.507812 114.5 L 202 96.992188 L 219.507812 79.484375 L 214.113281 74.085938 L 196.605469 91.597656 L 179.09375 74.085938 Z M 173.699219 79.484375 " fill-opacity="1" fill-rule="evenodd"/></g><g clip-path="url(#70866f32bb)"><path fill="#ff3131" d="M 381.6875 79.484375 L 399.195312 96.992188 L 381.6875 114.5 L 387.082031 119.894531 L 404.589844 102.386719 L 422.101562 119.894531 L 427.496094 114.5 L 409.984375 96.992188 L 427.496094 79.484375 L 422.101562 74.085938 L 404.589844 91.597656 L 387.082031 74.085938 Z M 381.6875 79.484375 " fill-opacity="1" fill-rule="evenodd"/></g></svg>