<svg width="392" height="489" viewBox="0 0 392 489" fill="none" xmlns="http://www.w3.org/2000/svg">
<path d="M266.25 85.3999H39.2499C17.9499 85.3999 0.649902 102.7 0.649902 124V449.7C0.649902 471 17.9499 488.3 39.2499 488.3H266.25C287.55 488.3 304.85 471 304.85 449.7V124C304.75 102.7 287.45 85.3999 266.25 85.3999ZM277.75 449.6C277.75 456 272.55 461.2 266.15 461.2H39.1499C32.7499 461.2 27.5499 456 27.5499 449.6V124C27.5499 117.6 32.7499 112.4 39.1499 112.4H266.15C272.55 112.4 277.75 117.6 277.75 124V449.6Z" fill="white"/>
<path d="M353.05 0H126.05C104.75 0 87.4497 17.3 87.4497 38.6C87.4497 46.1 93.4497 52.1 100.95 52.1C108.45 52.1 114.45 46.1 114.45 38.6C114.45 32.2 119.65 27 126.05 27H353.05C359.45 27 364.65 32.2 364.65 38.6V364.3C364.65 370.7 359.45 375.9 353.05 375.9C345.55 375.9 339.55 381.9 339.55 389.4C339.55 396.9 345.55 402.9 353.05 402.9C374.35 402.9 391.65 385.6 391.65 364.3V38.6C391.65 17.3 374.35 0 353.05 0Z" fill="white"/>
</svg>
