<svg width="1004" height="211" viewBox="0 0 1004 211" fill="none" xmlns="http://www.w3.org/2000/svg">
<path opacity="0.21" d="M518 17.8219C518 14.03 518 12.134 518.492 10.5746C519.911 6.07221 524.227 2.5564 529.754 1.40037C531.669 1 533.996 1 538.652 1H982.348C987.004 1 989.331 1 991.246 1.40037C996.773 2.5564 1001.09 6.07221 1002.51 10.5746C1003 12.134 1003 14.03 1003 17.8219V193.178C1003 196.97 1003 198.866 1002.51 200.425C1001.09 204.928 996.773 208.444 991.246 209.6C989.331 210 987.004 210 982.348 210H538.652C533.996 210 531.669 210 529.754 209.6C524.227 208.444 519.911 204.928 518.492 200.425C518 198.866 518 196.97 518 193.178V17.8219Z" stroke="url(#paint0_linear_901_575)"/>
<path opacity="0.21" d="M1 17.8219C1 14.03 1 12.134 1.49152 10.5746C2.91072 6.07221 7.22695 2.5564 12.7544 1.40037C14.6687 1 16.9963 1 21.6516 1H465.348C470.004 1 472.331 1 474.246 1.40037C479.773 2.5564 484.089 6.07221 485.508 10.5746C486 12.134 486 14.03 486 17.8219V193.178C486 196.97 486 198.866 485.508 200.425C484.089 204.928 479.773 208.444 474.246 209.6C472.331 210 470.004 210 465.348 210H21.6516C16.9964 210 14.6687 210 12.7544 209.6C7.22695 208.444 2.91072 204.928 1.49152 200.425C1 198.866 1 196.97 1 193.178V17.8219Z" stroke="url(#paint1_linear_901_575)"/>
<defs>
<linearGradient id="paint0_linear_901_575" x1="526" y1="12.5" x2="988.5" y2="62.5" gradientUnits="userSpaceOnUse">
<stop stop-color="white"/>
<stop offset="1" stop-color="white" stop-opacity="0"/>
</linearGradient>
<linearGradient id="paint1_linear_901_575" x1="476" y1="1.00002" x2="102" y2="210" gradientUnits="userSpaceOnUse">
<stop stop-color="white"/>
<stop offset="1" stop-color="white" stop-opacity="0"/>
</linearGradient>
</defs>
</svg>
