<svg width="672" height="429" viewBox="0 0 672 429" fill="none" xmlns="http://www.w3.org/2000/svg">
<path opacity="0.48" fill-rule="evenodd" clip-rule="evenodd" d="M644.663 126.603C647.858 126.603 650.894 125.478 652.984 123.519L668.78 108.716C669.165 108.355 669.165 107.819 668.78 107.458C668.307 107.015 667.459 107.015 666.986 107.458L652.052 121.443C649.963 123.4 646.927 124.524 643.734 124.524H629.156C625.962 124.524 622.925 123.399 620.836 121.441L552.661 57.563C550.572 55.6052 547.536 54.4801 544.342 54.4801H499.832C496.638 54.4801 493.601 53.3548 491.512 51.3966L439.96 3.08353C437.87 1.12536 434.834 0 431.639 0H361.171C360.463 0 359.888 0.46537 359.888 1.03943C359.888 1.6135 360.463 2.07886 361.171 2.07886H430.722C433.917 2.07886 436.953 3.20422 439.043 5.16238L452.996 18.2391C459.158 24.0139 454.096 32.9847 444.676 32.9847H394.241C391.048 32.9847 388.013 31.8605 385.924 29.9041L375.29 19.9473C373.201 17.9908 370.166 16.8666 366.973 16.8666H328.07C325.963 16.8666 323.959 16.1241 322.581 14.8322L317.988 10.5281C317.515 10.0849 316.667 10.0849 316.194 10.5281C315.809 10.889 315.809 11.4243 316.194 11.7852L320.96 16.2513C322.785 17.9622 325.439 18.9455 328.23 18.9455H366.056C369.249 18.9455 372.284 20.0697 374.373 22.0261L385.007 31.9829C387.096 33.9394 390.132 35.0636 393.324 35.0636H465.919C469.113 35.0636 472.15 36.1889 474.239 38.1471L490.595 53.4755C492.685 55.4336 495.721 56.559 498.916 56.559H543.425C546.619 56.559 549.655 57.6841 551.744 59.6418L619.919 123.52C622.008 125.478 625.045 126.603 628.239 126.603H644.663ZM456.784 94.3786C456.792 94.3711 456.804 94.3668 456.816 94.3668H501.743C504.792 94.3668 507.691 95.441 509.685 97.3102C515.567 102.823 510.735 111.386 501.743 111.386H489.282C488.574 111.386 488 111.851 488 112.425C488 112.999 488.574 113.465 489.282 113.465H521.893C525.087 113.465 528.124 114.59 530.213 116.548L537.652 123.519C539.741 125.478 542.778 126.603 545.972 126.603H568.264C571.461 126.603 574.5 127.73 576.589 129.691L580.478 133.341C582.568 135.302 585.607 136.429 588.804 136.429H646.675C647.383 136.429 647.958 135.964 647.958 135.39C647.958 134.816 647.383 134.35 646.675 134.35H589.721C586.524 134.35 583.485 133.223 581.395 131.262L577.506 127.612C575.417 125.651 572.378 124.524 569.181 124.524H546.889C543.695 124.524 540.658 123.399 538.569 121.441L510.751 95.3714C508.662 93.4133 505.625 92.2879 502.431 92.2879H462.654C459.46 92.2879 456.423 91.1625 454.334 89.2044L414.642 52.0066C412.552 50.0484 409.516 48.9231 406.321 48.9231H334.514C331.319 48.9231 328.283 47.7977 326.193 45.8395L304.498 25.508C302.409 23.5498 299.372 22.4245 296.178 22.4245H70.0922C69.3839 22.4245 68.8096 22.8898 68.8096 23.4639C68.8096 24.038 69.3839 24.5033 70.0922 24.5033H295.261C298.455 24.5033 301.492 25.6287 303.582 27.5868L325.276 47.9184C327.366 49.8766 330.402 51.0019 333.597 51.0019H405.405C408.599 51.0019 411.636 52.1273 413.725 54.0854L438.755 77.5423C444.917 83.3171 439.855 92.2879 430.434 92.2879H346.389C343.194 92.2879 340.158 91.1625 338.068 89.2044L300.301 53.8102C299.828 53.367 298.98 53.367 298.507 53.8102C298.122 54.1711 298.122 54.7063 298.507 55.0672L337.152 91.2832C339.241 93.2414 342.278 94.3668 345.472 94.3668H456.688C456.7 94.3668 456.712 94.3711 456.72 94.3786C456.737 94.3944 456.767 94.3944 456.784 94.3786ZM182.534 214.442C179.34 214.442 176.303 213.317 174.214 211.359L113.552 154.521C111.462 152.564 108.426 151.439 105.232 151.439H1.28247C0.574097 151.439 -0.000122074 150.973 -0.000122074 150.399C-0.000122074 149.825 0.574097 149.36 1.28247 149.36H106.163C109.357 149.36 112.394 150.485 114.484 152.443L175.131 209.28C177.22 211.238 180.257 212.363 183.451 212.363H423.315C432.736 212.363 437.798 203.391 431.634 197.616L413.326 180.465C411.236 178.508 408.2 177.383 405.007 177.383H229.99C226.796 177.383 223.759 176.258 221.669 174.299L179.996 135.244C177.906 133.286 174.87 132.161 171.675 132.161H32.9294C32.221 132.161 31.6468 131.695 31.6468 131.121C31.6468 130.547 32.221 130.082 32.9294 130.082H172.592C175.786 130.082 178.823 131.207 180.913 133.165L222.586 172.221C224.676 174.179 227.712 175.304 230.907 175.304H405.923C409.117 175.304 412.153 176.429 414.243 178.386L447.221 209.281C449.31 211.238 452.346 212.363 455.54 212.363H515.908C517.991 212.363 519.971 211.629 521.334 210.353C525.354 206.587 522.052 200.736 515.908 200.736H465.096C461.901 200.736 458.864 199.61 456.774 197.651L410.265 154.052C408.175 152.093 405.138 150.967 401.943 150.967H368.491C367.783 150.967 367.209 150.502 367.209 149.928C367.209 149.354 367.783 148.889 368.491 148.889H402.861C406.056 148.889 409.092 150.014 411.182 151.972L457.706 195.573C459.795 197.531 462.832 198.657 466.026 198.657H528.787C531.981 198.657 535.018 197.532 537.107 195.574L561.358 172.851C567.521 167.077 562.459 158.105 553.038 158.105H482.308C479.114 158.105 476.077 156.98 473.988 155.021L442.208 125.238C440.118 123.28 437.082 122.154 433.887 122.154H292.361C291.653 122.154 291.078 121.689 291.078 121.115C291.078 120.541 291.653 120.076 292.361 120.076H434.804C437.998 120.076 441.035 121.201 443.124 123.159L474.905 152.943C476.994 154.901 480.031 156.026 483.225 156.026H574.285C577.479 156.026 580.516 154.901 582.605 152.943L588.731 147.204C590.82 145.246 593.856 144.121 597.05 144.121H644.328C647.521 144.121 650.556 145.245 652.645 147.202L667.302 160.927C667.688 161.288 667.688 161.823 667.303 162.185C666.83 162.628 665.982 162.628 665.509 162.185L651.728 149.281C649.639 147.324 646.604 146.2 643.411 146.2H597.967C594.773 146.2 591.737 147.325 589.648 149.283L523.395 211.359C521.703 212.945 519.389 213.985 516.873 214.322H517.076C520.27 214.322 523.306 215.447 525.395 217.405L591.648 279.482C593.737 281.439 596.773 282.565 599.967 282.565H645.411C648.604 282.565 651.639 281.44 653.728 279.484L667.509 266.58C667.982 266.137 668.83 266.137 669.303 266.58C669.688 266.941 669.688 267.476 669.302 267.837L654.645 281.563C652.556 283.519 649.521 284.643 646.328 284.643H599.05C595.856 284.643 592.82 283.518 590.731 281.561L584.605 275.821C582.516 273.863 579.479 272.738 576.285 272.738H485.225C482.031 272.738 478.994 273.864 476.905 275.822L445.124 305.605C443.035 307.563 439.998 308.689 436.804 308.689H294.361C293.653 308.689 293.078 308.223 293.078 307.649C293.078 307.075 293.653 306.61 294.361 306.61H435.887C439.082 306.61 442.118 305.485 444.208 303.526L475.988 273.743C478.077 271.785 481.114 270.659 484.308 270.659H555.038C564.459 270.659 569.521 261.688 563.358 255.913L539.107 233.191C537.018 231.233 533.981 230.108 530.787 230.108H468.026C464.832 230.108 461.795 231.233 459.706 233.191L413.182 276.792C411.092 278.75 408.056 279.876 404.861 279.876H370.491C369.783 279.876 369.209 279.41 369.209 278.836C369.209 278.262 369.783 277.797 370.491 277.797H403.943C407.138 277.797 410.175 276.671 412.265 274.712L458.774 231.113C460.864 229.155 463.901 228.029 467.096 228.029H517.908C524.052 228.029 527.354 222.178 523.334 218.412C521.971 217.135 519.991 216.401 517.908 216.401H457.54C454.346 216.401 451.31 217.526 449.221 219.483L416.243 250.378C414.153 252.335 411.117 253.46 407.923 253.46H232.907C229.712 253.46 226.676 254.586 224.586 256.544L182.913 295.599C180.823 297.557 177.786 298.682 174.592 298.682H34.9294C34.221 298.682 33.6468 298.217 33.6468 297.643C33.6468 297.069 34.221 296.604 34.9294 296.604H173.675C176.87 296.604 179.906 295.478 181.996 293.52L223.669 254.465C225.759 252.507 228.796 251.381 231.99 251.381H407.007C410.2 251.381 413.236 250.257 415.326 248.299L433.634 231.148C439.798 225.374 434.736 216.401 425.315 216.401H185.451C182.257 216.401 179.22 217.527 177.131 219.485L116.484 276.321C114.394 278.279 111.357 279.405 108.163 279.405H3.28247C2.5741 279.405 1.99988 278.939 1.99988 278.365C1.99988 277.791 2.5741 277.326 3.28247 277.326H107.232C110.426 277.326 113.462 276.201 115.552 274.243L176.214 217.405C177.907 215.819 180.221 214.78 182.737 214.442H182.534ZM646.663 302.161C649.858 302.161 652.894 303.287 654.984 305.245L670.78 320.049C671.165 320.41 671.165 320.945 670.78 321.306C670.307 321.749 669.459 321.749 668.986 321.306L654.052 307.321C651.963 305.365 648.927 304.24 645.734 304.24H631.156C627.962 304.24 624.925 305.365 622.836 307.323L554.661 371.201C552.572 373.159 549.536 374.284 546.342 374.284H501.832C498.638 374.284 495.601 375.41 493.512 377.368L441.96 425.681C439.87 427.639 436.834 428.764 433.639 428.764H363.171C362.463 428.764 361.888 428.299 361.888 427.725C361.888 427.151 362.463 426.685 363.171 426.685H432.722C435.917 426.685 438.953 425.56 441.043 423.602L454.996 410.525C461.158 404.75 456.096 395.78 446.676 395.78H396.241C393.048 395.78 390.013 396.904 387.924 398.86L377.29 408.817C375.201 410.774 372.166 411.898 368.973 411.898H330.07C327.963 411.898 325.959 412.64 324.581 413.932L319.988 418.236C319.515 418.679 318.667 418.679 318.194 418.236C317.809 417.875 317.809 417.34 318.194 416.979L322.96 412.513C324.785 410.802 327.439 409.819 330.23 409.819H368.056C371.249 409.819 374.284 408.695 376.373 406.738L387.007 396.781C389.096 394.825 392.132 393.701 395.324 393.701H467.919C471.113 393.701 474.15 392.575 476.239 390.617L492.595 375.289C494.685 373.331 497.721 372.205 500.916 372.205H545.425C548.619 372.205 551.655 371.08 553.744 369.122L621.919 305.244C624.008 303.287 627.045 302.161 630.239 302.161H646.663ZM458.802 334.396C458.806 334.397 458.811 334.398 458.816 334.398H503.743C506.792 334.398 509.691 333.323 511.685 331.454C517.567 325.942 512.735 317.378 503.743 317.378H491.282C490.574 317.378 490 316.913 490 316.339C490 315.765 490.574 315.3 491.282 315.3H523.893C527.087 315.3 530.124 314.174 532.213 312.216L539.652 305.245C541.741 303.287 544.778 302.161 547.972 302.161H570.264C573.461 302.161 576.5 301.034 578.589 299.073L582.478 295.423C584.568 293.462 587.607 292.335 590.804 292.335H648.675C649.383 292.335 649.958 292.801 649.958 293.375C649.958 293.949 649.383 294.414 648.675 294.414H591.721C588.524 294.414 585.485 295.541 583.395 297.502L579.506 301.152C577.417 303.113 574.378 304.24 571.181 304.24H548.889C545.695 304.24 542.658 305.366 540.569 307.324L512.751 333.393C510.662 335.351 507.625 336.476 504.431 336.476H464.654C461.46 336.476 458.423 337.602 456.334 339.56L416.642 376.758C414.552 378.716 411.516 379.841 408.321 379.841H336.514C333.319 379.841 330.283 380.967 328.193 382.925L306.498 403.256C304.409 405.215 301.372 406.34 298.178 406.34H72.0922C71.3839 406.34 70.8096 405.875 70.8096 405.3C70.8096 404.726 71.3839 404.261 72.0922 404.261H297.261C300.455 404.261 303.492 403.136 305.582 401.177L327.276 380.846C329.366 378.888 332.402 377.762 335.597 377.762H407.405C410.599 377.762 413.636 376.637 415.725 374.679L440.755 351.222C446.917 345.447 441.855 336.476 432.434 336.476H348.389C345.194 336.476 342.158 337.602 340.068 339.56L302.301 374.954C301.828 375.397 300.98 375.397 300.507 374.954C300.122 374.593 300.122 374.058 300.507 373.697L339.152 337.481C341.241 335.523 344.278 334.398 347.472 334.398H458.688C458.7 334.398 458.712 334.393 458.72 334.386C458.737 334.37 458.767 334.37 458.784 334.386C458.789 334.39 458.795 334.394 458.802 334.396Z" fill="url(#paint0_linear_901_257)"/>
<defs>
<linearGradient id="paint0_linear_901_257" x1="474.569" y1="209.897" x2="0.122649" y2="201.26" gradientUnits="userSpaceOnUse">
<stop stop-color="#ADADAD"/>
<stop offset="0.869792" stop-color="white" stop-opacity="0"/>
</linearGradient>
</defs>
</svg>
