<svg width="672" height="429" viewBox="0 0 672 429" fill="none" xmlns="http://www.w3.org/2000/svg">
<path opacity="0.48" fill-rule="evenodd" clip-rule="evenodd" d="M26.4055 126.603C23.2111 126.603 20.1745 125.478 18.085 123.519L2.2889 108.716C1.9037 108.355 1.9037 107.819 2.2889 107.458C2.76177 107.015 3.60968 107.015 4.08276 107.458L19.0169 121.443C21.1063 123.4 24.1417 124.524 27.3346 124.524H41.9132C45.1072 124.524 48.1435 123.399 50.233 121.441L118.408 57.563C120.497 55.6052 123.533 54.4801 126.727 54.4801H171.236C174.431 54.4801 177.467 53.3548 179.557 51.3966L231.109 3.08353C233.199 1.12536 236.235 0 239.43 0H309.898C310.606 0 311.181 0.46537 311.181 1.03943C311.181 1.6135 310.606 2.07886 309.898 2.07886H240.347C237.152 2.07886 234.116 3.20422 232.026 5.16238L218.073 18.2391C211.911 24.0139 216.973 32.9847 226.393 32.9847H276.828C280.02 32.9847 283.056 31.8605 285.145 29.9041L295.779 19.9473C297.868 17.9908 300.903 16.8666 304.096 16.8666H342.999C345.106 16.8666 347.11 16.1241 348.488 14.8322L353.081 10.5281C353.554 10.0849 354.402 10.0849 354.875 10.5281C355.26 10.889 355.26 11.4243 354.875 11.7852L350.109 16.2513C348.283 17.9622 345.63 18.9455 342.839 18.9455H305.013C301.82 18.9455 298.785 20.0697 296.695 22.0261L286.062 31.9829C283.973 33.9394 280.937 35.0636 277.745 35.0636H205.15C201.956 35.0636 198.919 36.1889 196.83 38.1471L180.474 53.4755C178.384 55.4336 175.348 56.559 172.153 56.559H127.644C124.45 56.559 121.414 57.6841 119.324 59.6418L51.1498 123.52C49.0604 125.478 46.0241 126.603 42.8301 126.603H26.4055ZM214.285 94.3786C214.277 94.3711 214.265 94.3668 214.253 94.3668H169.326C166.277 94.3668 163.378 95.441 161.384 97.3102C155.502 102.823 160.334 111.386 169.326 111.386H181.786C182.495 111.386 183.069 111.851 183.069 112.425C183.069 112.999 182.495 113.465 181.786 113.465H149.176C145.982 113.465 142.945 114.59 140.856 116.548L133.417 123.519C131.328 125.478 128.291 126.603 125.097 126.603H102.805C99.6079 126.603 96.569 127.73 94.4795 129.691L90.5906 133.341C88.5011 135.302 85.4622 136.429 82.2651 136.429H24.3938C23.6855 136.429 23.1112 135.964 23.1112 135.39C23.1112 134.816 23.6855 134.35 24.3938 134.35H81.3482C84.5453 134.35 87.5842 133.223 89.6737 131.262L93.5626 127.612C95.6521 125.651 98.691 124.524 101.888 124.524H124.18C127.374 124.524 130.411 123.399 132.5 121.441L160.317 95.3714C162.407 93.4133 165.444 92.2879 168.638 92.2879H208.415C211.609 92.2879 214.646 91.1625 216.735 89.2044L256.427 52.0066C258.516 50.0484 261.553 48.9231 264.747 48.9231H336.555C339.75 48.9231 342.786 47.7977 344.876 45.8395L366.57 25.508C368.66 23.5498 371.696 22.4245 374.891 22.4245H600.977C601.685 22.4245 602.259 22.8898 602.259 23.4639C602.259 24.038 601.685 24.5033 600.977 24.5033H375.808C372.613 24.5033 369.577 25.6287 367.487 27.5868L345.793 47.9184C343.703 49.8766 340.666 51.0019 337.472 51.0019H265.664C262.47 51.0019 259.433 52.1273 257.344 54.0854L232.314 77.5423C226.152 83.3171 231.214 92.2879 240.635 92.2879H324.68C327.874 92.2879 330.911 91.1625 333 89.2044L370.768 53.8102C371.241 53.367 372.089 53.367 372.562 53.8102C372.947 54.1711 372.947 54.7063 372.562 55.0672L333.917 91.2832C331.828 93.2414 328.791 94.3668 325.597 94.3668H214.381C214.369 94.3668 214.357 94.3711 214.349 94.3786C214.332 94.3944 214.302 94.3944 214.285 94.3786ZM488.535 214.442C491.729 214.442 494.765 213.317 496.855 211.359L557.517 154.521C559.606 152.564 562.643 151.439 565.837 151.439H669.786C670.495 151.439 671.069 150.973 671.069 150.399C671.069 149.825 670.495 149.36 669.786 149.36H564.906C561.711 149.36 558.675 150.485 556.585 152.443L495.938 209.28C493.849 211.238 490.812 212.363 487.618 212.363H247.754C238.333 212.363 233.271 203.391 239.435 197.616L257.743 180.465C259.833 178.508 262.869 177.383 266.062 177.383H441.079C444.273 177.383 447.31 176.258 449.399 174.299L491.073 135.244C493.163 133.286 496.199 132.161 499.394 132.161H638.139C638.848 132.161 639.422 131.695 639.422 131.121C639.422 130.547 638.848 130.082 638.139 130.082H498.477C495.282 130.082 492.246 131.207 490.156 133.165L448.483 172.221C446.393 174.179 443.356 175.304 440.162 175.304H265.145C261.952 175.304 258.916 176.429 256.826 178.386L223.848 209.281C221.759 211.238 218.723 212.363 215.529 212.363H155.161C153.078 212.363 151.097 211.629 149.735 210.353C145.715 206.587 149.016 200.736 155.161 200.736H205.973C209.168 200.736 212.205 199.61 214.295 197.651L260.804 154.052C262.893 152.093 265.931 150.967 269.125 150.967H302.578C303.286 150.967 303.86 150.502 303.86 149.928C303.86 149.354 303.286 148.889 302.578 148.889H268.208C265.013 148.889 261.977 150.014 259.887 151.972L213.363 195.573C211.273 197.531 208.237 198.657 205.042 198.657H142.281C139.087 198.657 136.051 197.532 133.962 195.574L109.711 172.851C103.548 167.077 108.609 158.105 118.03 158.105H188.76C191.955 158.105 194.991 156.98 197.081 155.021L228.861 125.238C230.951 123.28 233.987 122.154 237.182 122.154H378.708C379.416 122.154 379.99 121.689 379.99 121.115C379.99 120.541 379.416 120.076 378.708 120.076H236.265C233.07 120.076 230.034 121.201 227.944 123.159L196.164 152.943C194.075 154.901 191.038 156.026 187.844 156.026H96.7834C93.5894 156.026 90.5531 154.901 88.4636 152.943L82.3382 147.204C80.2487 145.246 77.2124 144.121 74.0184 144.121H26.7412C23.5483 144.121 20.513 145.245 18.4236 147.202L3.76641 160.927C3.38099 161.288 3.38086 161.823 3.76611 162.185C4.2389 162.628 5.08666 162.628 5.55968 162.185L19.3404 149.281C21.4299 147.324 24.4652 146.2 27.658 146.2H73.1015C76.2955 146.2 79.3318 147.325 81.4213 149.283L147.673 211.359C149.366 212.945 151.68 213.985 154.196 214.322H153.993C150.799 214.322 147.763 215.447 145.673 217.405L79.4213 279.482C77.3318 281.439 74.2955 282.565 71.1015 282.565H25.658C22.4652 282.565 19.4299 281.44 17.3404 279.484L3.55968 266.58C3.08666 266.137 2.2389 266.137 1.76611 266.58C1.38086 266.941 1.38099 267.476 1.76641 267.837L16.4236 281.563C18.513 283.519 21.5483 284.643 24.7412 284.643H72.0184C75.2124 284.643 78.2487 283.518 80.3382 281.561L86.4636 275.821C88.5531 273.863 91.5894 272.738 94.7834 272.738H185.844C189.038 272.738 192.075 273.864 194.164 275.822L225.944 305.605C228.034 307.563 231.07 308.689 234.265 308.689H376.708C377.416 308.689 377.99 308.223 377.99 307.649C377.99 307.075 377.416 306.61 376.708 306.61H235.182C231.987 306.61 228.951 305.485 226.861 303.526L195.081 273.743C192.991 271.785 189.955 270.659 186.76 270.659H116.03C106.609 270.659 101.548 261.688 107.711 255.913L131.962 233.191C134.051 231.233 137.087 230.108 140.281 230.108H203.042C206.237 230.108 209.273 231.233 211.363 233.191L257.887 276.792C259.977 278.75 263.013 279.876 266.208 279.876H300.578C301.286 279.876 301.86 279.41 301.86 278.836C301.86 278.262 301.286 277.797 300.578 277.797H267.125C263.931 277.797 260.893 276.671 258.804 274.712L212.295 231.113C210.205 229.155 207.168 228.029 203.973 228.029H153.161C147.016 228.029 143.715 222.178 147.735 218.412C149.097 217.135 151.078 216.401 153.161 216.401H213.529C216.723 216.401 219.759 217.526 221.848 219.483L254.826 250.378C256.916 252.335 259.952 253.46 263.145 253.46H438.162C441.356 253.46 444.393 254.586 446.483 256.544L488.156 295.599C490.246 297.557 493.282 298.682 496.477 298.682H636.139C636.848 298.682 637.422 298.217 637.422 297.643C637.422 297.069 636.848 296.604 636.139 296.604H497.394C494.199 296.604 491.163 295.478 489.073 293.52L447.399 254.465C445.31 252.507 442.273 251.381 439.079 251.381H264.062C260.869 251.381 257.833 250.257 255.743 248.299L237.435 231.148C231.271 225.374 236.333 216.401 245.754 216.401H485.618C488.812 216.401 491.849 217.527 493.938 219.485L554.585 276.321C556.675 278.279 559.711 279.405 562.906 279.405H667.786C668.495 279.405 669.069 278.939 669.069 278.365C669.069 277.791 668.495 277.326 667.786 277.326H563.837C560.643 277.326 557.606 276.201 555.517 274.243L494.855 217.405C493.162 215.819 490.848 214.78 488.332 214.442H488.535ZM24.4055 302.161C21.2111 302.161 18.1745 303.287 16.085 305.245L0.288896 320.049C-0.0962993 320.41 -0.0962986 320.945 0.288898 321.306C0.761769 321.749 1.60968 321.749 2.08276 321.306L17.0169 307.321C19.1063 305.365 22.1417 304.24 25.3346 304.24H39.9132C43.1072 304.24 46.1435 305.365 48.233 307.323L116.408 371.201C118.497 373.159 121.533 374.284 124.727 374.284H169.236C172.431 374.284 175.467 375.41 177.557 377.368L229.109 425.681C231.199 427.639 234.235 428.764 237.43 428.764H307.898C308.606 428.764 309.181 428.299 309.181 427.725C309.181 427.151 308.606 426.685 307.898 426.685H238.347C235.152 426.685 232.116 425.56 230.026 423.602L216.073 410.525C209.911 404.75 214.973 395.78 224.393 395.78H274.828C278.02 395.78 281.056 396.904 283.145 398.86L293.779 408.817C295.868 410.774 298.903 411.898 302.096 411.898H340.999C343.106 411.898 345.11 412.64 346.488 413.932L351.081 418.236C351.554 418.679 352.402 418.679 352.875 418.236C353.26 417.875 353.26 417.34 352.875 416.979L348.109 412.513C346.283 410.802 343.63 409.819 340.839 409.819H303.013C299.82 409.819 296.785 408.695 294.695 406.738L284.062 396.781C281.973 394.825 278.937 393.701 275.745 393.701H203.15C199.956 393.701 196.919 392.575 194.83 390.617L178.474 375.289C176.384 373.331 173.348 372.205 170.153 372.205H125.644C122.45 372.205 119.414 371.08 117.324 369.122L49.1498 305.244C47.0604 303.287 44.0241 302.161 40.8301 302.161H24.4055ZM212.267 334.396C212.263 334.397 212.258 334.398 212.253 334.398H167.326C164.277 334.398 161.378 333.323 159.384 331.454C153.502 325.942 158.334 317.378 167.326 317.378H179.786C180.495 317.378 181.069 316.913 181.069 316.339C181.069 315.765 180.495 315.3 179.786 315.3H147.176C143.982 315.3 140.945 314.174 138.856 312.216L131.417 305.245C129.328 303.287 126.291 302.161 123.097 302.161H100.805C97.6079 302.161 94.569 301.034 92.4795 299.073L88.5906 295.423C86.5011 293.462 83.4622 292.335 80.2651 292.335H22.3938C21.6855 292.335 21.1112 292.801 21.1112 293.375C21.1112 293.949 21.6855 294.414 22.3938 294.414H79.3482C82.5453 294.414 85.5842 295.541 87.6737 297.502L91.5626 301.152C93.6521 303.113 96.691 304.24 99.8881 304.24H122.18C125.374 304.24 128.411 305.366 130.5 307.324L158.317 333.393C160.407 335.351 163.444 336.476 166.638 336.476H206.415C209.609 336.476 212.646 337.602 214.735 339.56L254.427 376.758C256.516 378.716 259.553 379.841 262.747 379.841H334.555C337.75 379.841 340.786 380.967 342.876 382.925L364.57 403.256C366.66 405.215 369.696 406.34 372.891 406.34H598.977C599.685 406.34 600.259 405.875 600.259 405.3C600.259 404.726 599.685 404.261 598.977 404.261H373.808C370.613 404.261 367.577 403.136 365.487 401.177L343.793 380.846C341.703 378.888 338.666 377.762 335.472 377.762H263.664C260.47 377.762 257.433 376.637 255.344 374.679L230.314 351.222C224.152 345.447 229.214 336.476 238.635 336.476H322.68C325.874 336.476 328.911 337.602 331 339.56L368.768 374.954C369.241 375.397 370.089 375.397 370.562 374.954C370.947 374.593 370.947 374.058 370.562 373.697L331.917 337.481C329.828 335.523 326.791 334.398 323.597 334.398H212.381C212.369 334.398 212.357 334.393 212.349 334.386C212.332 334.37 212.302 334.37 212.285 334.386C212.28 334.39 212.274 334.394 212.267 334.396Z" fill="url(#paint0_linear_901_260)"/>
<defs>
<linearGradient id="paint0_linear_901_260" x1="196.5" y1="209.897" x2="670.946" y2="201.26" gradientUnits="userSpaceOnUse">
<stop stop-color="#ADADAD"/>
<stop offset="0.84375" stop-color="white" stop-opacity="0"/>
</linearGradient>
</defs>
</svg>
