<svg width="200" height="47" viewBox="0 0 200 47" fill="none" xmlns="http://www.w3.org/2000/svg">
<mask id="mask0_1201_662" style="mask-type:luminance" maskUnits="userSpaceOnUse" x="0" y="0" width="200" height="47">
<path d="M200 0H0V46.3774H200V0Z" fill="white"/>
</mask>
<g mask="url(#mask0_1201_662)">
<path d="M27.5991 36.9764H9.18974V4.78022C9.18974 2.25785 7.14284 0.210938 4.61833 0.210938H0V41.5947C0 44.1192 2.04264 46.1641 4.56715 46.1641H32.1641V41.5457C32.1641 39.0211 30.1215 36.9764 27.597 36.9764H27.5991Z" fill="white"/>
<path d="M41.3582 4.78022V46.1662H45.9765C48.5009 46.1662 50.5458 44.1192 50.5458 41.5968V0.210938H45.9276C43.4028 0.210938 41.3582 2.25785 41.3582 4.78022Z" fill="white"/>
<path d="M144.88 4.78022V18.5926H126.499V4.72052C126.499 2.22799 124.48 0.210938 121.991 0.210938H117.309V46.1662H121.991C124.48 46.1662 126.499 44.1468 126.499 41.6587V27.7823H144.88V41.6587C144.88 44.1468 146.9 46.1662 149.388 46.1662H154.07V0.210938H149.452C146.927 0.210938 144.882 2.25785 144.882 4.78022H144.88Z" fill="white"/>
<path d="M167.834 0.210938C165.309 0.210938 163.264 2.25785 163.264 4.78022V9.40285H177.049V46.1662H181.672C184.196 46.1662 186.239 44.1192 186.239 41.5968V9.40285H195.43C197.955 9.40285 200 7.3559 200 4.83353V0.210938H167.834Z" fill="white"/>
<path d="M83.9252 0C77.7315 0 71.9084 2.41151 67.5289 6.79105C63.1494 11.1706 60.7378 16.9936 60.7378 23.1876C60.7378 29.3816 63.1494 35.2047 67.5289 39.5842C71.9084 43.9636 77.7315 46.3752 83.9252 46.3752C85.3922 46.3752 86.838 46.2387 88.2493 45.9744V41.484V21.3411H83.6312C81.1064 21.3411 79.0619 23.3881 79.0619 25.9104V36.0618C73.8656 34.0917 70.1643 29.0639 70.1643 23.1855C70.1643 15.5949 76.3389 9.42005 83.9294 9.42005C91.52 9.42005 97.695 15.5949 97.695 23.1855C97.695 27.3518 95.8335 31.0917 92.902 33.6162V44.5801C95.6438 43.4305 98.1622 41.7462 100.328 39.5821C104.708 35.2025 107.119 29.3795 107.119 23.1855C107.119 16.9915 104.708 11.1684 100.328 6.78892C95.9425 2.41151 90.1193 0 83.9252 0Z" fill="white"/>
</g>
</svg>
