<svg width="87" height="86" viewBox="0 0 87 86" fill="none" xmlns="http://www.w3.org/2000/svg">
<rect x="1.33442" y="0.8" width="84.4" height="84.4" rx="10.2" fill="#232D4E"/>
<g clip-path="url(#clip0_1202_256)">
<path fill-rule="evenodd" clip-rule="evenodd" d="M53.4896 56.1383H44.9146L39.0498 66.8676C38.6187 67.6563 37.7916 68.1467 36.8928 68.1467C35.2715 68.1467 34.0942 66.6046 34.5216 65.0407L35.369 61.9392C36.5962 61.0302 36.2345 58.4375 35.8947 56.1383H34.3909H24.0295C23.2351 56.1383 22.4595 56.0577 21.7105 55.9042C21.1643 55.7923 20.6321 55.6417 20.1171 55.4553C18.5134 54.8749 17.0757 53.9479 15.8944 52.7647C14.3642 51.2321 14.3613 48.7506 15.8927 47.2193L16.6963 46.4156C15.7387 47.3514 14.3607 47.2894 13.4567 46.5872C13.3203 46.4812 13.1946 46.3606 13.0828 46.2267C12.7474 45.8248 12.5369 45.3028 12.5343 44.6936V44.6431C12.5343 38.2145 14.7986 32.3148 18.5732 27.6979C19.1124 27.0384 19.6824 26.405 20.2811 25.8C20.2811 25.8 20.2811 25.8 20.2811 25.8C20.9405 25.1336 21.8845 24.9192 22.7234 25.1636C22.8801 25.2093 23.0331 25.2709 23.1799 25.3486C23.3904 25.46 23.5882 25.6044 23.7657 25.7819L24.0996 26.1159C23.0063 25.0225 23.186 23.2019 24.4721 22.3435L24.472 22.3434C28.7229 19.5069 33.8305 17.853 39.3245 17.853H41.0838C42.4372 17.853 43.5343 18.9503 43.5343 20.3036C43.5343 18.9501 44.6316 17.853 45.9849 17.853H51.4582C55.5359 17.853 59.4394 18.8852 62.8702 20.7432C64.3045 21.5199 64.5728 23.4683 63.4197 24.6218L64.0292 24.0123C64.9478 23.0937 66.4231 23.0523 67.3938 23.9156C70.2342 26.4415 72.4706 29.6674 73.8896 33.3671C76.3265 39.8286 71.5514 46.7328 64.6457 46.7328H62.3162C62.1424 46.7328 62.0052 46.8793 62.0165 47.0528C62.0285 47.2375 62.0345 47.4239 62.0345 47.6116C62.0347 52.3267 58.2073 56.1481 53.4896 56.1383Z" fill="url(#paint0_radial_1202_256)"/>
<path d="M35.3342 38.1492H37.6763V29.2681C37.6763 28.7513 38.0952 28.3325 38.6119 28.3325C39.1286 28.3325 39.5474 28.7514 39.5474 29.2681V38.1492H48.9224V29.2681C48.9224 28.7513 49.3413 28.3325 49.858 28.3325C50.3747 28.3325 50.7935 28.7514 50.7935 29.2681V38.1492H54.4511C55.9571 38.1492 57.3821 38.5029 58.6473 39.1315L63.2006 34.5782C63.5659 34.2131 64.1583 34.2128 64.5238 34.5782C64.8892 34.9436 64.8892 35.5359 64.5238 35.9015L60.2702 40.155C62.2694 41.7187 63.6263 44.0673 63.8729 46.733H62.3161C62.1605 46.733 62.0343 46.8505 62.0177 46.9997C61.7051 43.0991 58.4308 40.0205 54.4509 40.0205H35.334C34.8173 40.0205 34.3984 39.6016 34.3984 39.0849C34.3987 38.568 34.8175 38.1492 35.3342 38.1492Z" fill="#6759AD" fill-opacity="0.6"/>
<path d="M34.8824 45.9985C31.8218 45.9985 28.9445 44.8066 26.7804 42.6425L23.8844 39.7467C23.519 39.3813 23.519 38.7889 23.8844 38.4235C24.2498 38.0581 24.8422 38.058 25.2076 38.4234L28.1037 41.3193C29.9143 43.13 32.3218 44.1272 34.8825 44.1272H50.8422C52.817 44.1272 54.6735 44.8962 56.0701 46.2925L56.3879 46.6105C56.7533 46.976 56.7532 47.5684 56.3877 47.9338C56.205 48.1164 55.9657 48.2077 55.7263 48.2077C55.4868 48.2077 55.2472 48.1163 55.0646 47.9336L54.7469 47.6157C53.704 46.5727 52.3174 45.9985 50.8423 45.9985H34.8824Z" fill="#6759AD" fill-opacity="0.6"/>
<path d="M27.7307 52.7658C30.0873 50.7808 33.0383 49.6997 36.1555 49.6997H47.792C48.3087 49.6997 48.7275 50.1186 48.7275 50.6353C48.7275 51.152 48.3087 51.5708 47.792 51.5708H36.1553C33.8535 51.5708 31.6572 52.2587 29.8015 53.5372L27.7307 52.7658Z" fill="#6759AD" fill-opacity="0.6"/>
<path d="M22.804 43.8019C23.1695 44.1673 23.1695 44.7597 22.804 45.1251C22.6213 45.3077 22.3819 45.3992 22.1425 45.3992C21.9031 45.3992 21.6636 45.3077 21.481 45.125L19.795 43.439C17.6792 41.3233 17.3136 37.9581 18.9258 35.4375L19.6558 34.296C19.9342 33.8605 20.5128 33.7334 20.9481 34.0119C21.3835 34.2903 21.5106 34.8689 21.2322 35.3042L20.5022 36.4457C19.3598 38.232 19.6188 40.6166 21.1182 42.116L22.804 43.8019Z" fill="#6759AD" fill-opacity="0.6"/>
<path d="M64.0294 24.0125C64.8413 23.2007 66.088 23.0739 67.0369 23.6515L62.4104 28.2781C62.2276 28.4607 61.9882 28.5522 61.7488 28.5522C61.5094 28.5522 61.2699 28.4607 61.0873 28.2781C60.7218 27.9127 60.7218 27.3204 61.0873 26.9548L64.0294 24.0125Z" fill="#6759AD" fill-opacity="0.6"/>
<path d="M44.4701 29.4815C43.9534 29.4815 43.5345 29.0626 43.5345 28.5459V20.3035C43.5345 19.1498 44.3319 18.1821 45.4058 17.9219V28.5459C45.4058 29.0626 44.9868 29.4815 44.4701 29.4815Z" fill="#6759AD" fill-opacity="0.6"/>
<path d="M23.7369 23.1095C23.9161 22.814 24.1619 22.5509 24.4723 22.3438L24.4722 22.3437C26.162 21.2162 27.9873 20.2754 29.9183 19.5513C28.6742 20.3455 27.5001 21.2398 26.4072 22.2226C25.3913 23.1363 25.3368 24.7094 26.303 25.6756L29.7137 29.0862C30.0792 29.4517 30.0792 30.0439 29.7137 30.4095C29.531 30.5921 29.2916 30.6835 29.0522 30.6835C28.8128 30.6835 28.5732 30.5921 28.3906 30.4095L24.1 26.1164C23.2722 25.2884 23.1715 24.0382 23.7369 23.1095Z" fill="#6759AD" fill-opacity="0.6"/>
</g>
<rect x="1.33442" y="0.8" width="84.4" height="84.4" rx="10.2" stroke="url(#paint1_linear_1202_256)" stroke-width="1.6"/>
<defs>
<radialGradient id="paint0_radial_1202_256" cx="0" cy="0" r="1" gradientUnits="userSpaceOnUse" gradientTransform="translate(43.5342 42.9999) rotate(90) scale(25.1468 31)">
<stop stop-color="#AEA5DE"/>
<stop offset="1" stop-color="#796EAE"/>
</radialGradient>
<linearGradient id="paint1_linear_1202_256" x1="43.5344" y1="0" x2="43.5344" y2="86" gradientUnits="userSpaceOnUse">
<stop stop-color="#586280"/>
<stop offset="1" stop-color="#455072" stop-opacity="0.42"/>
</linearGradient>
<clipPath id="clip0_1202_256">
<rect width="62" height="62" fill="white" transform="matrix(-1 0 0 1 74.5344 12)"/>
</clipPath>
</defs>
</svg>
