<svg width="87" height="86" viewBox="0 0 87 86" fill="none" xmlns="http://www.w3.org/2000/svg">
<rect x="1.33442" y="0.8" width="84.4" height="84.4" rx="10.2" fill="#232D4E"/>
<g clip-path="url(#clip0_1202_219)">
<path d="M66.9471 24.6401H37.2341V35.4401H70.5341V28.9602C70.5343 26.5842 68.92 24.6401 66.9471 24.6401Z" fill="url(#paint0_linear_1202_219)"/>
<path d="M70.5344 34.835C70.5344 32.8391 68.9734 31.2062 67.0655 31.2062H50.9318C49.5652 31.2062 48.2931 30.5085 47.5586 29.356L43.7241 23.3391C42.6658 21.6786 40.2388 20.3198 38.3309 20.3198H20.0033C18.0954 20.3197 16.5344 21.9526 16.5344 23.9485V61.6798C16.5344 63.889 18.3253 65.6798 20.5344 65.6798H66.5344C68.7436 65.6798 70.5344 63.889 70.5344 61.6798V34.835Z" fill="url(#paint1_radial_1202_219)"/>
<path d="M37.6522 51.4062L32.2522 55.7273C32.0615 55.878 31.8256 55.96 31.5826 55.96C31.3396 55.96 31.1036 55.878 30.913 55.7273L25.513 51.4062C25.3162 51.2205 25.1963 50.9676 25.1771 50.6976C25.1578 50.4277 25.2405 50.1603 25.4089 49.9485C25.5772 49.7366 25.819 49.5957 26.0862 49.5535C26.3535 49.5114 26.6268 49.5712 26.8522 49.721L30.5026 52.6377V37.6003C30.5026 37.3138 30.6164 37.039 30.8189 36.8364C31.0214 36.6338 31.2961 36.52 31.5826 36.52C31.869 36.52 32.1437 36.6338 32.3463 36.8364C32.5488 37.039 32.6626 37.3138 32.6626 37.6003V52.6377L36.313 49.721C36.4217 49.6183 36.5506 49.5393 36.6915 49.4891C36.8323 49.4388 36.9821 49.4184 37.1313 49.429C37.2804 49.4397 37.4258 49.4812 37.5581 49.551C37.6903 49.6208 37.8067 49.7173 37.8998 49.8344C37.9928 49.9515 38.0606 50.0866 38.0987 50.2313C38.1368 50.3759 38.1444 50.5269 38.1212 50.6747C38.0979 50.8225 38.0442 50.9638 37.9634 51.0897C37.8827 51.2156 37.7767 51.3234 37.6522 51.4062Z" fill="#7063AE" stroke="#7063AE" stroke-width="0.2"/>
</g>
<rect x="1.33442" y="0.8" width="84.4" height="84.4" rx="10.2" stroke="url(#paint2_linear_1202_219)" stroke-width="1.6"/>
<defs>
<linearGradient id="paint0_linear_1202_219" x1="53.8841" y1="24.6401" x2="52.7143" y2="35.4401" gradientUnits="userSpaceOnUse">
<stop stop-color="#8D83C0"/>
<stop offset="1" stop-color="#5D509F"/>
</linearGradient>
<radialGradient id="paint1_radial_1202_219" cx="0" cy="0" r="1" gradientUnits="userSpaceOnUse" gradientTransform="translate(43.5344 42.9998) rotate(90) scale(29.16 34.7143)">
<stop stop-color="#AEA5DE"/>
<stop offset="1" stop-color="#796EAE"/>
</radialGradient>
<linearGradient id="paint2_linear_1202_219" x1="43.5344" y1="0" x2="43.5344" y2="86" gradientUnits="userSpaceOnUse">
<stop stop-color="#586280"/>
<stop offset="1" stop-color="#455072" stop-opacity="0.42"/>
</linearGradient>
<clipPath id="clip0_1202_219">
<rect width="54" height="54" fill="white" transform="translate(16.5344 16)"/>
</clipPath>
</defs>
</svg>
